<svg viewBox="0 0 330 200" xmlns="http://www.w3.org/2000/svg"><g><g><g><g><g><line x1="82" y1="169.764599158448" x2="77" y2="169.764599158448" style="visibility: inherit;" fill="rgb(0, 0, 0)" stroke="rgb(204, 204, 204)" stroke-width="1px"></line><line x1="82" y1="146.44036872847136" x2="77" y2="146.44036872847136" style="visibility: inherit;" fill="rgb(0, 0, 0)" stroke="rgb(204, 204, 204)" stroke-width="1px"></line><line x1="82" y1="123.11613829849472" x2="77" y2="123.11613829849472" style="visibility: inherit;" fill="rgb(0, 0, 0)" stroke="rgb(204, 204, 204)" stroke-width="1px"></line><line x1="82" y1="99.79190786851808" x2="77" y2="99.79190786851808" style="visibility: inherit;" fill="rgb(0, 0, 0)" stroke="rgb(204, 204, 204)" stroke-width="1px"></line><line x1="82" y1="76.46767743854144" x2="77" y2="76.46767743854144" style="visibility: inherit;" fill="rgb(0, 0, 0)" stroke="rgb(204, 204, 204)" stroke-width="1px"></line><line x1="82" y1="53.143447008564806" x2="77" y2="53.143447008564806" style="visibility: inherit;" fill="rgb(0, 0, 0)" stroke="rgb(204, 204, 204)" stroke-width="1px"></line><line x1="82" y1="29.81921657858814" x2="77" y2="29.81921657858814" style="visibility: inherit;" fill="rgb(0, 0, 0)" stroke="rgb(204, 204, 204)" stroke-width="1px"></line><line x1="82" y1="6.494986148611531" x2="77" y2="6.494986148611531" style="visibility: inherit;" fill="rgb(0, 0, 0)" stroke="rgb(204, 204, 204)" stroke-width="1px"></line></g><g transform="translate(72, 0)"><text x="0" y="169.764599158448" dx="0em" dy="0.3em" style="text-anchor: end; visibility: inherit; font-family: &quot;Helvetica Neue&quot;, sans-serif; font-size: 12px; font-weight: 200;" fill="rgb(50, 49, 63)" stroke="none" stroke-width="1px">0</text><text x="0" y="146.44036872847136" dx="0em" dy="0.3em" style="text-anchor: end; visibility: inherit; font-family: &quot;Helvetica Neue&quot;, sans-serif; font-size: 12px; font-weight: 200;" fill="rgb(50, 49, 63)" stroke="none" stroke-width="1px">2e+6</text><text x="0" y="123.11613829849472" dx="0em" dy="0.3em" style="text-anchor: end; visibility: inherit; font-family: &quot;Helvetica Neue&quot;, sans-serif; font-size: 12px; font-weight: 200;" fill="rgb(50, 49, 63)" stroke="none" stroke-width="1px">4e+6</text><text x="0" y="99.79190786851808" dx="0em" dy="0.3em" style="text-anchor: end; visibility: inherit; font-family: &quot;Helvetica Neue&quot;, sans-serif; font-size: 12px; font-weight: 200;" fill="rgb(50, 49, 63)" stroke="none" stroke-width="1px">6e+6</text><text x="0" y="76.46767743854144" dx="0em" dy="0.3em" style="text-anchor: end; visibility: inherit; font-family: &quot;Helvetica Neue&quot;, sans-serif; font-size: 12px; font-weight: 200;" fill="rgb(50, 49, 63)" stroke="none" stroke-width="1px">8e+6</text><text x="0" y="53.143447008564806" dx="0em" dy="0.3em" style="text-anchor: end; visibility: inherit; font-family: &quot;Helvetica Neue&quot;, sans-serif; font-size: 12px; font-weight: 200;" fill="rgb(50, 49, 63)" stroke="none" stroke-width="1px">1e+7</text><text x="0" y="29.81921657858814" dx="0em" dy="0.3em" style="text-anchor: end; visibility: inherit; font-family: &quot;Helvetica Neue&quot;, sans-serif; font-size: 12px; font-weight: 200;" fill="rgb(50, 49, 63)" stroke="none" stroke-width="1px">1.2e+7</text><text x="0" y="6.494986148611531" dx="0em" dy="0.3em" style="text-anchor: end; visibility: inherit; font-family: &quot;Helvetica Neue&quot;, sans-serif; font-size: 12px; font-weight: 200;" fill="rgb(50, 49, 63)" stroke="none" stroke-width="1px">1.4e+7</text></g><line x1="82" y1="0" x2="82" y2="178" fill="rgb(0, 0, 0)" stroke="rgb(204, 204, 204)" stroke-width="1px"></line></g></g><g transform="translate(82, 0)" clip-path="url(#clip_0)"><clipPath id="clip_0"><rect width="247" height="177"></rect></clipPath><g><g><g><line x1="7.255346049351583" y1="0" x2="7.255346049351583" y2="178" fill="rgb(0, 0, 0)" stroke="rgb(60, 60, 60)" stroke-width="1px" opacity="0.25"></line><line x1="32.98050178405857" y1="0" x2="32.98050178405857" y2="178" fill="rgb(0, 0, 0)" stroke="rgb(60, 60, 60)" stroke-width="1px" opacity="0.25"></line><line x1="58.705657518765555" y1="0" x2="58.705657518765555" y2="178" fill="rgb(0, 0, 0)" stroke="rgb(60, 60, 60)" stroke-width="1px" opacity="0.25"></line><line x1="84.43081325347252" y1="0" x2="84.43081325347252" y2="178" fill="rgb(0, 0, 0)" stroke="rgb(60, 60, 60)" stroke-width="1px" opacity="0.25"></line><line x1="110.15596898817951" y1="0" x2="110.15596898817951" y2="178" fill="rgb(0, 0, 0)" stroke="rgb(60, 60, 60)" stroke-width="1px" opacity="0.25"></line><line x1="135.88112472288648" y1="0" x2="135.88112472288648" y2="178" fill="rgb(0, 0, 0)" stroke="rgb(60, 60, 60)" stroke-width="1px" opacity="0.25"></line><line x1="161.60628045759347" y1="0" x2="161.60628045759347" y2="178" fill="rgb(0, 0, 0)" stroke="rgb(60, 60, 60)" stroke-width="1px" opacity="0.25"></line><line x1="187.33143619230046" y1="0" x2="187.33143619230046" y2="178" fill="rgb(0, 0, 0)" stroke="rgb(60, 60, 60)" stroke-width="1px" opacity="0.25"></line><line x1="213.05659192700747" y1="0" x2="213.05659192700747" y2="178" fill="rgb(0, 0, 0)" stroke="rgb(60, 60, 60)" stroke-width="1px" opacity="0.25"></line><line x1="238.7817476617144" y1="0" x2="238.7817476617144" y2="178" fill="rgb(0, 0, 0)" stroke="rgb(60, 60, 60)" stroke-width="1px" opacity="0.25"></line></g><g><line x1="0" y1="169.764599158448" x2="248" y2="169.764599158448" fill="rgb(0, 0, 0)" stroke="rgb(60, 60, 60)" stroke-width="1px" opacity="0.25"></line><line x1="0" y1="146.44036872847136" x2="248" y2="146.44036872847136" fill="rgb(0, 0, 0)" stroke="rgb(60, 60, 60)" stroke-width="1px" opacity="0.25"></line><line x1="0" y1="123.11613829849472" x2="248" y2="123.11613829849472" fill="rgb(0, 0, 0)" stroke="rgb(60, 60, 60)" stroke-width="1px" opacity="0.25"></line><line x1="0" y1="99.79190786851808" x2="248" y2="99.79190786851808" fill="rgb(0, 0, 0)" stroke="rgb(60, 60, 60)" stroke-width="1px" opacity="0.25"></line><line x1="0" y1="76.46767743854144" x2="248" y2="76.46767743854144" fill="rgb(0, 0, 0)" stroke="rgb(60, 60, 60)" stroke-width="1px" opacity="0.25"></line><line x1="0" y1="53.143447008564806" x2="248" y2="53.143447008564806" fill="rgb(0, 0, 0)" stroke="rgb(60, 60, 60)" stroke-width="1px" opacity="0.25"></line><line x1="0" y1="29.81921657858814" x2="248" y2="29.81921657858814" fill="rgb(0, 0, 0)" stroke="rgb(60, 60, 60)" stroke-width="1px" opacity="0.25"></line><line x1="0" y1="6.494986148611531" x2="248" y2="6.494986148611531" fill="rgb(0, 0, 0)" stroke="rgb(60, 60, 60)" stroke-width="1px" opacity="0.25"></line></g></g></g><g><g><line x1="0" y1="169.764599158448" x2="248" y2="169.764599158448" fill="rgb(0, 0, 0)" stroke="rgb(153, 153, 153)" stroke-width="1.5px"></line></g></g><g><g><line x1="32.98050178405857" y1="0" x2="32.98050178405857" y2="178" fill="rgb(0, 0, 0)" stroke="rgb(153, 153, 153)" stroke-width="1.5px"></line></g></g><g><g><g><g><g><path stroke="rgb(0, 119, 187)" stroke-width="2px" d="M32.98050178405857,17.82876617183706L33.18773220525482,20.088935122255833L33.37995628560582,26.13589433148357L33.57432412893472,30.028015689653245L33.76797738460432,35.83339271109503L33.96163064027392,39.73859831870138L34.15528389594352,46.766389610191055L34.34679338863523,53.1682217726933L34.53615911834903,55.20200746664388L34.726954023381445,61.011764262056616L34.91774892841386,61.53486340790944L35.10425630749049,65.10450040106386L35.29219286188571,67.2360622846492L35.48155859159952,67.00105965286821L35.670924321313336,72.45997115461024L35.861004638686445,73.75333455876275L36.05322871903745,76.29397977484359L36.24402362406986,77.70883218756747L36.43410394144298,79.05545373184574L36.625613434134685,82.58810773236068L36.82212504044147,83.6473260072215L37.02006582206686,86.09063603151058L37.210860727099266,87.1802690312638L37.40094104447238,87.96593314212012L37.5895921865269,91.92913505348933L37.77824332858142,92.38901028179029L37.96760905829524,93.12899194788362L38.15840396332764,93.35212552168214L38.35134263133794,93.02568772658425L38.542137536370355,93.18492261876445L38.735076204380654,94.31403495652991L38.925871109413066,96.0886881446218L39.114522251467584,96.33486241532358L39.303887981181404,97.68017993746102L39.49539747387311,98.63987824178587L39.693338255498496,99.05201709266845L39.881989397553006,99.05910747402301L40.07707182854121,100.32836067456678L40.26858132123291,101.45663247047518L40.461519989243214,102.11122994182223L40.66446288448368,103.0657991628879L40.86240366610907,104.33393863110345L41.05462774646007,105.33758556687359L41.24613723915178,104.86913090822969L41.437646731843486,104.43341380048237L41.633443750490976,106.45151422165674L41.82924076913847,106.72543314060445L42.02217943714877,106.6708865893763L42.212974342181184,107.62222426745545L42.40448383487289,107.98111457872146L42.60242461649827,107.84515786612555L42.79393410918998,108.19771540713981L42.99687700443045,109.64503530019826L43.20053448733021,109.64455300405334L43.39847526895559,109.68943333101709L43.597845225899576,110.75879835507179L43.802217296458636,111.21983651266935L43.996585139787534,111.49725476348547L44.18952380779783,111.74638544600332L44.37960412517095,111.85036061436817L44.57111361786266,111.99409130143466L44.762623110554365,112.80892036173096L44.95341801558678,112.56697169676974L45.14421292061919,113.53556482232398L45.33715158862948,110.64071996636926L45.53795072089206,108.11878243194558L45.728031038265165,109.73513453469523L45.920255118616176,108.54655883112369L46.11105002364859,111.04697689673901L46.30113034102169,111.00894109352126L46.499785710306384,112.07313137624142L46.69272437831668,112.54170753538375L46.88995057228277,113.20004568811359L47.089320529226754,113.63413532510607L47.28083002191846,114.13391903574353L47.47519786524736,114.40402287925129L47.66527818262047,114.53716313962276L47.85750226297147,115.2231927314138L48.04758258034458,115.89809673200503L48.23909207303629,116.70665561025834L48.429172390409406,116.20753873456488L48.62068188310111,116.41548724215295L48.81004761281493,116.77215750775582L48.99869875486944,117.34850858411636L49.18949365990185,117.88932379086555L49.37957397727497,117.75485037062919L49.570368882307385,117.77190417368116L49.76259296265838,118.29563571538958L49.95624621832798,118.68318269665605L50.1463265357011,117.93366748739219L50.337121440733505,115.99113764162408L50.52791634576592,114.07696325066792L50.71942583845763,115.36346162452291L50.910220743490044,113.2211706559155L51.106017762137526,114.47881592672402L51.297527254829234,114.5950305644559L51.49046592283954,115.26855603265886L51.67983165255335,115.6992865929243L51.87134114524506,115.88673763376991L52.063565225596065,116.03875449097131L52.25507471828777,116.26095581580995L52.44515503566089,116.68748551144837L52.6373791160119,116.9706436975506L52.83174695934079,117.52498956696618L53.0218272767139,117.43994175642118L53.2140513570649,117.80608559071862L53.40270249911942,118.56017899133177L53.59635575478902,118.74669682118315L53.79072359811792,118.26121799962924L53.9893789674026,118.93720753443542L54.181603047753605,118.805928784128L54.37025418980812,119.12054800437556L54.558190744203344,119.00156098084662L54.74827106157645,117.65534096896411L54.94120972958676,118.39042750239412L55.13057545930058,119.03409234735122L55.32137036433299,118.3465486443663L55.51073609404679,117.96050708622857L55.703674762057105,117.91426546722644L55.895184254748806,117.12747540009636L56.087408335099816,117.60776000977378L56.276059477154334,118.11988070647672L56.46471061920885,118.81848706265264L56.65550552424126,119.18983387155369L56.84772960459226,118.97362162962608L57.03638074664678,119.18018303880893L57.226461064019894,118.90241132846924L57.417970556711595,118.50039981995782L57.61019463706262,117.43242125122264L57.80027495443572,117.41264641002573L57.98892609649024,117.19113865735687L58.17972100152265,117.27032589790144L58.37051590655506,117.71741496341627L58.56917127583974,117.71083899556875L58.76068076853145,118.19433251207806L58.952904848882454,119.06112021936482L59.14441434157417,119.50098548013429L59.34021136022165,119.5815855151085L59.531006265254064,119.0678805636145L59.72823245922015,119.6649899292807L59.91688360127466,119.4605025114042L60.10910768162568,120.75287012905758L60.29847341133949,121.07897738949262L60.49355584232769,121.20315064706273L60.69292579927167,122.07087202733658L60.89015199323775,121.52774968101181L61.089521950181734,121.88038513369409L61.28460438116992,121.68917560516212L61.47397011088375,121.88058857591702L61.66405042825685,121.69302488251859L61.85698909626715,121.6085737047633L62.05207152725534,121.86727092568725L62.243581019947044,121.54863652524925L62.44366556455034,119.95319726771929L62.63588964490133,119.90941320345308L62.83025748823024,120.3749598201629L63.02248156858124,121.13098141444752L63.21613482425084,121.61830488125872L63.40835890460185,121.79751580076095L63.60487051090865,121.84188500130401L63.80281129253401,121.72904978167747L63.99574996054431,121.44087986039678L64.18440110259884,121.48117886693115L64.37448141997194,120.51462309835833L64.56599091266365,119.7831334527267L64.76321710662974,120.56372139672561L64.96187247591443,120.59626791480996L65.162671608177,120.61900057492164L65.35561027618729,119.9567342946275L65.54640518121971,119.31454707689667L65.73862926157072,119.20661582422365L65.93085334192172,119.99113311997851L66.12164824695414,120.86166862167363L66.31244315198654,121.28941833177777L66.50609640765614,121.10199696847243L66.69760590034787,121.54731979699167L66.89983420792902,122.15670561116445L67.08919993764283,122.2321393570814L67.27999484267524,122.82019876277494L67.47078974770766,122.67435769475208L67.66587217869585,122.79354771916272L67.86238378500263,123.88509330593415L68.05460786535365,124.17336375563778L68.24969029634184,123.8150117183803L68.46192283115317,123.62203839514757L68.65200314852628,121.6429947546747L68.843512641218,118.54123235785063L69.03716589688759,118.80982876551086L69.23367750319439,119.40483362306585L69.42661617120469,118.04501457318564L69.61741107623709,118.43918655038776L69.8096351565881,118.65387691641092L70.00614676289489,118.83649547078068L70.20480213217958,119.78807948540533L70.40274291380496,120.03719866407275L70.59353781883736,120.31545957443839L70.78719107450696,121.44855239352827L70.98012974251726,122.34361842673655L71.17449758584615,122.56404094826678L71.36743625385647,122.49258413124406L71.55608739591098,122.88765512127583L71.74759688860269,122.4942367695035L71.94125014427229,123.01527744987041L72.1320450493047,122.63856822227085L72.32569830497431,122.69848958730198L72.5193515606439,123.15097001197374L72.7101464656763,123.16550221739888L72.9037997213459,123.5175215586606L73.0967383893562,123.80929855395735L73.293249995663,124.17560244885382L73.49404912792558,124.0969162710945L73.69341908486955,123.77206108888112L73.88349940224268,124.42812552952165L74.07715265791226,124.02568954994655L74.29295813102009,123.72248405940724L74.49161350030477,123.86742186548327L74.70098768447892,124.4151780455035L74.8960701154671,124.31497612586878L75.0897233711367,123.20210183909269L75.2833766268063,122.75319586722891L75.4784590577945,123.24834358764485L75.67639983941989,123.67516625439205L75.86933850743019,122.91846579101774L76.06013341246259,123.22184858289971L76.2516429051543,123.59990442025457L76.44386698550531,123.80542424090058L76.63466189053771,123.73816084371398L76.82688597088871,123.84738459378403L77.01839546358043,124.19869781095784L77.20919036861285,124.04511228106196L77.40069986130456,124.27690886714335L77.59435311697415,124.30343807727536L77.78443343434725,124.16111002957936L77.97522833937967,123.8626183669074L78.16673783207139,124.07275812671966L78.35824732476308,123.97215845190418L78.54904222979549,124.10817933754312L78.73983713482791,123.79045538731181L78.92777368922313,123.83374788763591L79.12142694489272,123.43911987290964L79.31365102524373,123.6101660669305L79.50444593027613,123.45649664347474L79.69667001062716,124.01145491796903L79.88675032800026,124.27872319312131L80.08254734664776,124.4765522019754L80.27405683933947,124.27175186091623L80.46413715671257,124.62128528425559L80.65493206174497,125.20393879102713L80.84429779145879,124.3654354143903L81.04080939776559,124.34941096005436L81.23446265343519,124.9260811408098L81.42883049676408,125.37940386452901L81.61962540179648,125.84023280074467L81.81542242044398,125.62544023481226L82.0055027378171,125.1561417210697L82.2005851688053,125.29607460652012L82.39280924915629,125.3107637058364L82.59075003078169,125.22763538149422L82.79512210134074,124.70674654516294L82.9973504089219,124.80736933150861L83.19457660288799,125.53307717223477L83.38179856962392,125.6995653363322L83.57330806231563,125.22331125819002L83.76624673032593,123.879410781811L83.95918539833625,123.79436998960759L84.15283865400582,124.33476053212564L84.3529231986091,123.53253715448247L84.5451472789601,124.64588309481712L84.73880053462973,124.89112032309023L84.93173920264002,124.73870140516127L85.12324869533172,125.22667525159147L85.31690195100133,124.85560414674006L85.51126979433023,125.29622562729733L85.70277928702194,125.72492238385698L85.89786171801012,126.11583142798281L86.1022337885692,126.28329520153017L86.29660163189808,126.09441772779041L86.49025488756767,126.44182992797964L86.68605190621518,126.21421443324347L86.87970516188477,125.44433163722879L87.07264382989509,124.3348665109423L87.26558249790538,124.00038800864152L87.46423786719006,124.70687352560458L87.65789112285965,125.23864989742474L87.85154437852927,125.4192420968771L88.04948516015465,125.45758973891296L88.24956970475793,125.93377412685065L88.44608131106472,125.45097002632988L88.64044915439362,125.53578724085872L88.84910875090846,125.09226219503661L89.05348082146752,124.89482419783288L89.25142160309291,124.18740475555786L89.45222073535548,123.97426478683083L89.66302409484821,124.13497500733928L89.85310441222131,124.54805439059629L90.04175555427584,125.49346910971197L90.23469422228614,125.40242652364094L90.42691830263715,125.1851132985377L90.61914238298816,125.68553967135819L90.81708316461354,125.22579410587402L91.01359477092032,125.04260926923573L91.20724802658994,124.84591357066891L91.40233045757813,125.86186309066971L91.59598371324772,127.12758422206869L91.7939244948731,127.06627338463437L91.99972574075076,127.21577167956039L92.20338322365053,127.44583121039753L92.39560730400154,127.27804894919412L92.59211891030832,127.47865634451304L92.78434299065931,127.55616367450082L92.97370872037314,127.88009113407374L93.16450362540556,128.0644076948289L93.35958605639375,127.98451797105254L93.55038096142616,128.3989473538693L93.74617798007365,128.63299701804104L93.94197499872114,128.61237883648272L94.13705742970933,128.77604522429493L94.33571279899404,128.7180963315227L94.5357973435973,128.9531895081457L94.73874023883776,128.7923109187804L94.94382689705611,128.68338227184162L95.1431968540001,128.9173542624784L95.34399598626267,129.34914106216044L95.53979300491017,129.10107906457674L95.73273167292045,128.9034895595818L95.93781833113883,128.98916981549883L96.12789864851194,128.94983971540734L96.31869355354436,128.9869184746045L96.50948845857677,129.05933964841222L96.70242712658705,129.54054150940667L96.90251167119035,129.41376595133525L97.1068837417494,129.58813870967666L97.3012515850783,129.37154572804596L97.4913319024514,129.27952446743885L97.684985158121,129.40162484322633L97.87935300144989,129.32732432488353L98.0751500200974,129.43064062661134L98.2716616264042,129.78100186299204L98.46602946973309,129.74286686404818L98.6546806117876,129.65303599365564L98.84619010447932,129.3905092274931L99.04556006142327,129.26962620410893L99.237069554115,129.33106843724516L99.43429574808107,129.4255003102511L99.63580946800295,129.58357085554118L99.83875236324343,129.48226806691434L100.03740773252808,129.41848223285885L100.23391933883488,129.48691208937356L100.43328929577888,129.57531119378612L100.63194466506354,129.7178457285935L100.83060003434824,129.6072656497148L101.0321137542701,129.49976666264L101.23362747419199,129.32631745763365L101.42656614220228,129.38776600345315L101.61664645957539,129.6045395850973L101.80887053992639,129.4964166929329L101.99823626964022,129.47062970298884L102.1904603499912,129.32283448494704L102.38125525502362,129.4106261491321L102.57347933537463,129.52745677586387L102.76427424040703,129.2315769846492L102.95578373309876,129.21360084059967L103.14872240110904,129.48733461285852L103.34594859507513,129.48155639712905L103.54317478904123,129.5202760032701L103.73682804471082,129.66498968872622L103.92762294974324,130.08739293288812L104.11913244243493,129.88372894384162L104.32636286363118,129.95537706330578L104.51858694398219,129.81670983112645L104.71009643667391,130.1481851535758L104.90232051702492,130.04020744181645L105.09311542205734,129.96668822288788L105.2853395024083,130.0794577978258L105.47899275807794,130.180886031182L105.67193142608822,130.0553742065796L105.86201174346134,130.1233257013306L106.05495041147164,130.1057137169919L106.24574531650406,129.998607536639L106.43582563387716,129.9008968819907L106.63233724018394,130.0101979510284L106.83170719712793,129.8054390996524L107.0296479787533,129.88169807916142L107.228303348038,129.4960554981031L107.42910248030057,129.71121700589612L107.63561831383753,129.69559405802303L107.84356332269309,129.94446033756228L108.03507281538478,129.81683868906399L108.2258677204172,129.8815475609485L108.41594803779032,129.92329890878665L108.60674294282272,130.00350102655273L108.79682326019582,129.71346527201555L108.98690357756894,129.72831644004606L109.17626930728274,129.7504018324227L109.36849338763375,130.0541178728739L109.55857370500686,129.97788470248088L109.7715208274775,130.28467188380984L110.00304722908987,130.43034667826186L110.2117068256047,130.39802244907838L110.44752075317285,129.90188997127174L110.64831988543543,129.96051376105913L110.83625643983065,130.1350573090198L111.0399139227304,130.49482923270193L111.24571516860807,130.27925943180182L111.44651430087065,130.3044324143797L111.64874260845183,130.02620485098146L111.85883138028525,130.06422415678833L112.05605757425134,129.9174790809502L112.27043387204056,130.14306946340463L112.47480594259962,130.1572718089664L112.67631966252151,130.22694468364477L112.87283126882829,130.54772486377868L113.07648875172806,130.224265659594L113.27371494569414,130.06137929801417L113.46450985072654,130.34974046464282L113.65530475575896,130.2119431347562L113.86039141397733,130.23724892644591L114.06619265985498,130.0732801537386L114.27270849339193,130.17858706203617L114.46922009969872,130.07359767455694L114.67359217025776,129.83816567407757L114.87724965315753,129.71128586185L115.07590502244223,130.12641758067574L115.26598533981534,130.14702877764043L115.46249694612213,130.10998661228788L115.65257726349525,130.3699949971828L115.84980345746132,130.399678328534L116.0491734144053,130.46889726363548L116.2435412577342,130.2850699102819L116.43505075042592,130.12918628989436L116.62513106779902,130.23624449935966L116.83093231367667,130.4785879134482L117.06102953997043,130.8147838343955L117.2646870228702,130.81405872894692L117.46620074279207,130.24637604919766L117.67200198866973,130.43476465234608L117.86351148136144,130.3201276685851L118.06216685064614,130.19322149609698L118.26153680759009,130.20055054846694L118.45876300155619,130.15422244354977L118.65813295850018,130.6410397386913L118.86393420437781,130.46309672551672L119.06973545025548,130.56321334289132L119.26267411826578,130.23562294145466L119.4534690232982,130.48450785607523L119.6456931036492,130.80914372075927L119.8379171840002,130.54324369950112L120.03442879030699,130.6917164765354L120.226652870658,130.35507695925585L120.4210207139869,130.15536736135505L120.61181561901931,130.36212514467206L120.80189593639241,130.67448798903868L120.99412001674341,130.50018653288143L121.18634409709442,130.53807938834558L121.37713900212684,130.37907969538279L121.56721931949996,130.08682570719918L121.76587468878463,130.5659768768076L121.96167170743212,130.54497197721363L122.1639000150133,130.97083541425278L122.35540950770499,130.58445782671657L122.54620441273741,130.0774963196198L122.73842849308842,129.96437285165973L122.93208174875801,130.29926041573702L123.12430582910902,130.09176585375866L123.33010707498667,130.2553210299588L123.52018739235979,130.57084529297845L123.71812817398518,130.23746617927748L123.91178142965478,130.38644033719217L124.11186597425804,130.3508559377202L124.31552345715782,130.5229949502035L124.52346846601336,130.38760967118415L124.72283842295734,130.36819821031565L124.92435214287921,130.40096649959088L125.15230560619509,130.7106841041486L125.3738277805773,130.53677689748108L125.60249583155246,130.5085966817381L125.80329496381503,130.51899656127978L125.99266069352883,130.58515410455632L126.19203065047283,130.53347129296674L126.38925684443889,130.5423390427791L126.58219551244923,130.56921594642992L126.78299464471179,130.60337988222344L126.98450836463367,130.55241863271968L127.20174301306007,130.3121757108363L127.39468168107038,130.18498667322888L127.59548081333297,130.559917807101L127.79270700729903,130.57490943267055L127.98564567530934,130.9023128073041L128.17786975566037,130.94875204134294L128.37080842367064,131.02642447584947L128.56374709168097,130.73829024353756L128.75239823373548,130.5637536837899L128.94962442770156,130.60221220128182L129.14756520932693,130.5281360609785L129.34622057861162,130.51887381218862L129.5420175972591,130.50766033703542L129.7392437912252,130.50751434977082L129.935755397532,130.6011201910493L130.12726489022373,130.82337554070824L130.3216327335526,130.62455089177746L130.5131422262443,130.72524557898848L130.70465171893602,130.59938225877454L130.8947320363091,131.05162396100832L131.08695611666013,130.88313463943834L131.27918019701116,130.78135414791018L131.4835522675702,130.7606985808478L131.6750617602619,130.8360719872953L131.87228795422797,130.8272934404493L132.0616536839418,130.8810669368291L132.2574507025893,130.7929126977931L132.4511039582589,130.5941014363785L132.64547180158777,130.94791987093683L132.84126882023529,130.80924657154588L133.04564089079435,130.8807533785649L133.24000873412325,130.65771808604825L133.43723492808934,130.7972790491965L133.63160277141822,130.7772041422877L133.98175072447395,130.85895525839354L134.3026005834985,130.8526901831693L134.4976830144867,131.13548563582833L134.6913362701563,130.68632092702106L134.89070622710028,131.0098161699769L135.09079077170355,130.98975956163451L135.28730237801034,130.86907083538256L135.4923890362287,130.84290954857403L135.68890064253546,130.67251248573905L135.88898518713876,130.86421319718576L136.08835514408275,130.53841849725396L136.28200839975236,130.8325942439805L136.47566165542196,131.2452586913315L136.66717114811365,130.98514134279992L136.86511192973904,130.95444100466517L137.06090894838653,130.86593148934224L137.2631372559677,131.1766511209335L137.4582196869559,131.07622052225304L137.6525875302848,130.7616522476091L137.8433824353172,130.90278354137087L138.03346275269033,131.03624727799527L138.2271160083599,130.98438851190818L138.43506101721545,130.78392534479602L138.62657050990717,130.83380237036152L138.82022376557677,130.84213151453415L139.01173325826846,130.54187896634303L139.2032427509602,130.5511003629239L139.39260848067397,130.92990135634705L139.60055348952955,130.9488301006045L139.80349638477,130.83632168903756L140.00143716639542,130.98077325370673L140.20652382461375,131.19425686714453L140.40089166794266,131.14184314833264L140.59740327424944,131.03771661502572L140.79248570523762,130.77609025214974L140.98613896090723,130.75944816544072L141.18336515487331,130.6515687858776L141.3848788747952,130.6217983484967L141.5792467181241,130.70093339694577L141.7728999737937,130.80401939136027L141.96869699244118,130.9753455959551L142.17163988768164,131.18433770607123L142.36386396803266,131.04911151995088L142.55823181136154,131.03960218750612L142.75259965469047,130.95539189325802L142.94410914738216,130.96291156276874L143.13347487709598,131.20965366097113L143.32855730808416,131.06943942085456L143.52149597609449,131.18606019567238L143.72158052069773,131.01079120591862L143.92237965296033,131.1081739304857L144.1174620839485,131.22632992208798L144.31182992727742,131.12205854652024L144.50548318294702,130.89726753505846L144.69842185095732,130.93021892960573L144.8942188696048,130.96263383165018L145.08501377463722,130.88985993196823L145.27652326732894,131.075676864302L145.473749461295,130.83660034170515L145.6674027169646,130.97504757848918L145.8617705602935,131.04896815738493L146.0561384036224,130.71343176644027L146.256937535885,130.9214711677269L146.4513053792139,130.9057826471196L146.64495863488347,131.07248263525133L146.85576199437622,130.65450295799164L147.0487006623865,130.8476568915248L147.23878097975964,130.994511001329L147.43029047245133,130.98067208979052L147.62251455280236,130.79429290838067L147.81473863315333,130.9781863198873L148.00553353818574,130.84573345497654L148.19990138151465,130.8576449046432L148.40070051377722,130.92722257582358L148.59935588306192,131.18185176208925L148.7972966646873,131.03436362719685L148.9923790956755,130.94285259084376L149.1867469390044,130.86248057424845L149.3789710193554,130.71824200351475L149.56976592438778,130.99135849430476L149.77342340728757,131.23800141772867L149.96707666295717,131.3844407753055L150.16358826926395,131.35890781255867L150.35152482365916,131.40482580190448L150.5437489040102,131.43028091340784L150.7345438090426,131.524950826905L150.93534294130515,131.35881394949598L151.12971078463406,131.33547436167092L151.32765156625945,131.17056983536307L151.52273399724763,131.0678859130174L151.71638725291723,131.0682457074394L151.91146968390544,131.09433515290857L152.1058375272343,131.27116741594185L152.3080658348155,131.22184459808017L152.5010045028258,131.23940083917734L152.6953723461547,131.25982755617252L152.88616725118712,131.33694943740693L153.08053509451602,130.9976881978898L153.27132999954844,131.39553623991281L153.45998114160292,131.24373680472968L153.65077604663531,131.19622913848605L153.84157095166773,131.41222311664512L154.03165126904085,131.54290874510167L154.22244617407327,131.46519472094644L154.41324107910566,131.6038936441808L154.60403598413808,131.29274107895375L154.7976892398077,131.03355083437202L154.98634038186222,131.36005290126582L155.1778498745539,131.11199724076337L155.36935936724564,131.31820761249006L155.56872932418958,130.9335705711895L155.7602388168813,130.89094258086476L155.95103372191372,131.06371037740035L156.14182862694614,131.06441090493465L156.33476729495644,130.97550058511996L156.52842055062604,130.99423676116345L156.71921545565846,130.88696338712873L156.91143953600945,131.1299847306985L157.10151985338257,131.2138682064142L157.292314758415,131.18200953486598L157.48453883876596,131.168097967746L157.68390879570995,131.14683406866186L157.87827663903886,131.02207277468665L158.07693200832355,131.01893334202762L158.27272902697104,130.83364309508062L158.46495310732203,130.80933537830282L158.65646260001375,130.83014876654818L158.84725750504614,130.5048902807541L159.04591287433084,130.55949338114488L159.23813695468183,130.74806226686314L159.43107562269216,130.99957576153145L159.62472887836174,130.9439757869515L159.81838213403134,131.02767778230856L160.0191812662939,130.9990654130925L160.2156928726007,131.53144484956962L160.4093461282703,131.6526550377813L160.60442855925848,131.5495759300539L160.79808181492805,131.70043145240058L160.99530800889417,131.4659344430936L161.1889612645638,131.24126550932692L161.39190415980428,131.2087035807337L161.59127411674822,131.46308385332435L161.787785723055,131.31901847611726L161.98000980340606,131.40310269846657L162.16937553311985,131.53512273053587L162.36588713942663,131.59698618718366L162.5602549827555,131.27983369138292L162.75676658906232,131.10218625921857L162.95041984473193,131.14514226953327L163.1447876880608,131.03870830658735L163.3405847067083,131.11277343304445L163.5378109006744,130.939785199062L163.73360791932188,130.96210520639588L163.9251174120136,131.02157539422214L164.1180560800239,130.9655279734829L164.3095655727156,131.13617779599116L164.51893975688975,131.1489746555685L164.71187842490002,131.07561273268595L164.90338791759177,131.08353514148942L165.09632658560207,131.01082415266745L165.29569654254607,131.4682685030669L165.49506649948998,131.33892621050697L165.69157810579676,131.21995297988036L165.8859459491257,131.4671127213327L166.07817002947672,131.2261994654421L166.26896493450909,131.63227245072585L166.46619112847517,131.40095794038132L166.65770062116692,131.3150091120022L166.84921011385862,131.33250402748942L167.04143419420964,131.25564123791779L167.23580203753855,131.46829773731474L167.42874070554882,131.39453822049703L167.62096478589982,131.35651241235425L167.81175969093226,131.41280222118337L168.00612753426114,131.21883132329341L168.22264759502826,131.5940174367749L168.42130296431296,131.41302509778984L168.61209786934532,131.2916328553734L168.80718030033356,131.16868773326777L168.99654603004734,131.1075157444366L169.19019928571691,130.83752126595422L169.38385254138655,130.9864319056503L169.57822038471545,131.0367148683438L169.77330281570366,131.1835267899172L169.96552689605463,131.03351086893986L170.15775097640568,130.85714335318647L170.34997505675668,131.03895492097385L170.54648666306346,131.32598241559657L170.74085450639237,131.21757926500956L170.93808070035843,130.85964918209052L171.1345923066652,131.046518053382L171.33110391297203,131.29119097769043L171.5261863439602,131.17319241178092L171.71626666133332,131.48468207382865L171.90849074168432,131.16906932098166L172.09857105905746,131.07713164462558L172.28722220111194,131.07111552475095L172.48587757039664,131.21822469744163L172.67810165074764,131.05316456814452L172.87032573109866,131.33453969161008L173.06254981144966,131.09552893450604L173.2662072943494,131.06771503383152L173.46057513767832,131.1091705012542L173.65137004271074,131.3590269760123L173.84002118476525,131.37309821041995L174.03367444043485,131.27629385988382L174.22661310844512,131.25031122169142L174.41955177645545,131.33443855492172L174.61177585680647,131.6505814380919L174.80471452481675,131.56597421813748L175.0155178843095,131.35514035757L175.22131913018714,131.43591664600308L175.4464142428658,131.65787620848175L175.76083281295672,131.23243196232494L175.95734441926348,131.18631612131952L176.1481393242959,131.4126743089637L176.3460801059213,131.18682137207992L176.5404479492502,131.14262747071757L176.73624496789768,131.37791628678448L176.93132739888586,131.49870419902885L177.12355147923688,131.56808531963196L177.31506097192857,131.34545395985674L177.50585587696096,131.0343917449578L177.70022372028987,130.69091879197265L177.8910186253223,130.94782332663968L178.0868156439698,131.14595204739624L178.2783251366615,131.08907887113727L178.46912004169388,131.1387810833357L178.6634878850228,131.3244397576381L178.8557119653738,131.41657264651892L179.05579650997709,131.27234507623007L179.25016435330596,131.30220344117146L179.4445321966349,131.58898969262935L179.64604591655674,131.63648439635455L179.83826999690774,131.53658482870722L180.02906490194016,131.50430529298572L180.22128898229116,131.59235498237504L180.4120838873236,131.58994602108132L180.60216420469666,131.35890624964458L180.7929591097291,130.98782727525975L180.9851831900801,131.37360526972157L181.1802656210683,131.51873742746207L181.37106052610073,131.55392963909185L181.563999194111,131.3679992711774L181.75407951148412,131.33801054908844L181.9534494684281,131.16814625423635L182.14424437346054,131.18167678689588L182.3350392784929,131.4611107183337L182.52226124522883,131.51654304384803L182.71448532557986,131.65107041662597L182.90528023061225,131.6403325327768L183.1096523011713,131.58189892662733L183.3097368457746,131.58927720020503L183.50839221505927,131.5040341604636L183.70347464604748,131.16172963573828L183.89498413873918,131.35802982009903L184.09363950802387,131.31738476036594L184.28514900071556,131.03223049589593L184.47665849340729,131.19400036210314L184.66816798609898,131.5014818266515L184.87111088133946,131.62692774847008L185.06690789998694,131.72106926882518L185.25841739267864,131.5859969413629L185.44992688537036,131.75701383829622L185.63857802742487,131.39561173628226L185.83080210777587,131.23462151104997L186.0223116004676,131.0352934705587L186.2181086191151,130.96668924504152L186.4089035241475,130.88607144153585L186.6011276044985,131.1786461963772L186.79263709719018,131.32395701558715L186.98343200222263,131.28715073193584L187.174226907255,131.52496069794563L187.36573639994677,131.29156095504095L187.55724589263843,131.2222261814236L187.74804079767085,131.34975514315852L187.93883570270327,131.1588485562046L188.1289160200764,131.33492451518975L188.32042551276808,131.36863466530022L188.51908088205278,131.12794308545006L188.71059037474444,131.1350540005283L188.9028144550955,131.17450981602497L189.0978968860837,130.949689286745L189.28940637877537,131.2933565318702L189.4787721084892,131.40853523590383L189.68385876670754,131.2526814220384L189.88465789897015,131.52256064381817L190.07402362868393,131.5719371029462L190.26624770903496,131.66563697183722L190.4663322536382,131.37156543709375L190.65641257101134,131.22032201480425L190.84935123902164,130.85482002559996L191.03943155639476,131.16378932708596L191.23379939972367,131.27483891802024L191.42530889241536,131.29720044943625L191.61896214808496,131.27748879759463L191.80975705311738,131.78301073059936L192.00198113346835,131.60991598796625L192.1934906261601,131.45101162614856L192.38714388182967,131.43318359025744L192.5779387868621,131.50644116994394L192.77016286721312,131.35516374557628L192.96095777224548,131.31233674796994L193.15246726493723,131.07871436481506L193.3461205206068,131.1570761457243L193.5383446009578,131.254794260167L193.7384291455611,131.20967895188005L193.92993863825276,131.01061922414033L194.12216271860385,131.25746593595727L194.31009927299905,131.3969404991538L194.5001795903721,131.4264488808405L194.6902599077453,131.2795023361897L194.88105481277765,131.11364489647156L195.0725643054694,130.91448115676312L195.26193003518318,131.274425297753L195.45486870319345,131.35218288872255L195.64494902056657,131.34238814081766L195.83717310091757,131.25829581775085L196.03082635658723,131.18781890450967L196.2251941999161,131.16091158789897L196.41956204324498,131.10243955075975L196.61392988657389,131.34833167035092L196.80543937926564,131.29010524609845L197.00052181025382,131.06373926892752L197.1934604782641,131.39782478961703L197.38782832159296,131.3044211201126L197.5879128661963,131.35735672024794L197.78085153420656,131.60355872247928L197.97307561455756,131.35904450415782L198.1652996949086,131.55353564422137L198.36038212589676,131.54922655321184L198.55046244326988,131.59674271178125L198.74125734830233,131.55286215914887L198.9420564805649,131.28656948005977L199.1328513855973,131.5334704895373L199.32936299190408,131.51451164357735L199.52158707225504,131.49117916927148L199.71952785388044,131.36944156569734L199.91389569720934,131.17259165600748L200.1068343652197,131.32564921317248L200.3047751468451,131.33299405516192L200.50271592847042,131.38795039875495L200.69851294711788,131.31951045100124L200.89145161512826,131.04693366973564L201.09225074739078,131.02941361042923L201.29376446731268,131.13286842957234L201.4902760736195,131.47384780369376L201.68535850460768,131.56203585620582L201.87972634793655,131.2386996955895L202.07552336658404,131.07918520633348L202.26631827161648,131.0609794318641L202.45925693962678,131.11413462544274L202.6621998348672,131.0311500756647L202.85585309053678,131.03146329139602L203.04664799556923,131.3048782533607L203.23744290060162,131.4526702419298L203.43181074393058,131.29515934909438L203.62832235023737,131.28603698993967L203.82054643058834,131.27979387484265L204.01920179987303,131.24896974046678L204.2121404678833,131.12000937210183L204.4072228988715,130.84703498848555L204.6001615668818,130.88440901744758L204.80953575105596,131.14862173715414L205.01033488331856,131.0416158338595L205.20470272664744,131.34094258115283L205.3976413946577,131.5270146021077L205.59415300096452,131.42164450991405L205.7892354319527,131.32620702752797L205.98145951230373,131.4186184571885L206.18082946924767,131.14630389929064L206.37376813725803,131.35976475560904L206.57599644483918,131.61510293547212L206.7810831030575,131.53671489460464L206.99188646255027,131.3307064478965L207.18553971821987,131.42979180232484L207.38205132452663,131.58194633503732L207.57713375551484,131.33938534998228L207.7707870111844,131.38720079815616L207.96301109153546,131.6101260946007L208.15237682124922,131.56945218140834L208.34888842755603,131.54018823008286L208.5439708585443,131.23750513681935L208.73690952655457,131.32341604041244L208.93056278222414,131.30245221500758L209.12635980087165,131.2109283970283L209.32287140717844,131.32199516103807L209.53010182837468,131.32702426476317L209.7251842593629,131.32782709131885L209.93384385587774,131.16479426982295L210.12892628686592,131.3054648330719L210.3254378931727,131.11612117436835L210.5198057365016,131.220244337787L210.71488816748976,131.11513014156424L210.90997059847797,131.1872745200562L211.12220313328936,131.14049696376907L211.32514602852976,131.22275403993058L211.52380139781445,131.22448487193554L211.72031300412127,131.3254723633771L211.91539543510947,131.7174450282874L212.11047786609765,131.49394480750138L212.30841864772304,131.41896810053518L212.50564484168913,131.32886018637714L212.70930232458886,131.4799658646481L212.90652851855498,131.468421327655L213.10161094954316,131.48339839025593L213.29812255584994,131.48923585670843L213.49463416215676,131.67278506853808L213.6897165931449,131.33866147727065L213.92267217007588,131.30478063835628L214.13133176659076,131.6269532981221L214.3335600741719,131.314494281338L214.537932144731,131.24956437794663L214.74444797826797,131.00719582233194L214.9438179352119,131.2561734309958L215.1417587168373,131.04459537227132L215.33541197250688,131.33739488648905L215.55121744561472,131.21854321041909L215.74629987660293,131.38031590430995L215.93852395695393,131.41940714591075L216.12931886198638,131.1234738739014L216.33297634488608,131.56594076200432L216.54163594140095,131.70660244193158L216.74743718727862,131.67634686278635L216.94823631954114,131.2935879790063L217.1404603998922,131.2851921296546L217.33125530492458,130.98439987955695L217.52205020995703,131.0963205808031L217.7164180532859,131.645400583118L217.9150734225706,131.49240087260114L218.12230384376684,131.1984592708466L218.35383024537916,131.4780177068547L218.6010775754961,131.3399184617926L218.7975891818029,131.24676010080896L219.00196125236195,131.38457864899735L219.20204579696525,131.3365607905808L219.39998657859056,131.56077365965828L219.59935653553455,131.63457091612273L219.79944108013788,131.59504181143194L220.0002402124004,131.59041406501285L220.201039344663,131.48602540729323L220.39755095096982,131.5365520490155L220.5912042066394,131.47595484867895L220.78628663762757,131.2684969713118L220.98065448095645,131.22410715628436L221.18073902555975,131.32231504443286L221.3722485182515,131.63462721944407L221.56661636158037,131.51701056038712L221.75884044193137,131.5220950387756L221.95320828526025,131.55214468874294L222.1440031902927,131.55387084165278L222.33694185830296,131.4681520583144L222.52988052631326,131.0177761537679L222.72710672027935,131.04931950434303L222.9193308006304,131.1001297376859L223.11870075757432,131.19483448133448L223.31449777622183,131.25809248269925L223.50600726891358,131.14138897638304L223.69966052458315,131.3434510178281L223.89188460493415,131.14606409427188L224.09768585081179,130.91457706282102L224.28990993116284,130.74848995748067L224.48427777449172,131.23657331476622L224.67507267952408,131.356838018494L224.86729675987516,131.193970232803L225.05880625256682,131.3674660452512L225.25245950823648,131.1412994271008L225.44611276390606,131.25980441260924L225.64119519489424,131.4546191221149L225.83341927524523,131.07804536809195L226.02492876793696,130.9891962772995L226.2257279001995,130.80730967015575L226.42438326948422,130.8665133417287L226.62661157706535,131.1803146055095L226.82669612166865,131.21306706284784L227.01963478967895,131.45568418562317L227.22257768491943,131.43109720103254L227.41980387888555,131.21965643990828L227.61845924817015,131.24249505761395L227.8099687408619,131.39843288403392L228.0036219965315,131.29032028905004L228.19656066454178,131.31395419200325L228.39593062148577,131.79864023970083" style="fill: none;" fill="none"></path></g></g></g></g><g opacity="0.2"><g><g><g><path stroke="rgb(0, 119, 187)" stroke-width="2px" d="M32.98050178405857,17.82876617183706L33.18773220525482,21.445036492507143L33.37995628560582,31.940975172342263L33.57432412893472,34.6051504068607L33.76797738460432,43.41289295028935L33.96163064027392,45.14090354803983L34.15528389594352,56.81624360168192L34.34679338863523,62.50215452321035L34.53615911834903,58.2014463226878L34.726954023381445,69.63857601094857L34.91774892841386,62.31476765593591L35.10425630749049,70.43953008391397L35.29219286188571,70.42644519064277L35.48155859159952,66.64901609981675L35.670924321313336,80.64192166167264L35.861004638686445,75.69246748491312L36.05322871903745,80.10387248305632L36.24402362406986,79.83075157577892L36.43410394144298,81.07518090402468L36.625613434134685,87.88676583456461L36.82212504044147,85.23609532946513L37.02006582206686,89.75552066978716L37.210860727099266,88.81469701799081L37.40094104447238,89.14442000146417L37.5895921865269,97.87390975180024L37.77824332858142,93.07882116308393L37.96760905829524,94.23896255361335L38.15840396332764,93.68682553981735L38.35134263133794,92.53603133463272L38.542137536370355,93.42377486902805L38.735076204380654,96.00770308875215L38.925871109413066,98.75066757366307L39.114522251467584,96.70412379198801L39.303887981181404,99.69815612430479L39.49539747387311,100.0794256570284L39.693338255498496,99.67022535836489L39.881989397553006,99.06974304594515L40.07707182854121,102.23224046360004L40.26858132123291,103.14904015805351L40.461519989243214,103.09312614665525L40.66446288448368,104.49765299257237L40.86240366610907,106.2361478319011L41.05462774646007,106.84305596980431L41.24613723915178,104.1664489204667L41.437646731843486,103.77983813897463L41.633443750490976,109.47866485310364L41.82924076913847,107.13631151900042L42.02217943714877,106.58906676253709L42.212974342181184,109.04923078454212L42.40448383487289,108.51945004561324L42.60242461649827,107.64122279723334L42.79393410918998,108.72655171865861L42.99687700443045,111.81601513977964L43.20053448733021,109.64382955983591L43.39847526895559,109.75675382146264L43.597845225899576,112.36284589115283L43.802217296458636,111.91139374906541L43.996585139787534,111.91338213970958L44.18952380779783,112.12008146978002L44.37960412517095,112.00632336691542L44.57111361786266,112.20968733203439L44.762623110554365,114.03116395217538L44.95341801558678,112.20404869932794L45.14421292061919,114.9884545106553L45.33715158862948,106.29845268243719L45.53795072089206,104.33587613031006L45.728031038265165,112.1596626888197L45.920255118616176,106.76369527576632L46.11105002364859,114.79760399516202L46.30113034102169,110.95188738869464L46.499785710306384,113.66941680032166L46.69272437831668,113.24457177409724L46.88995057228277,114.18755291720836L47.089320529226754,114.28526978059476L47.28083002191846,114.88359460169974L47.47519786524736,114.8091786445129L47.66527818262047,114.73687353017996L47.85750226297147,116.25223711910033L48.04758258034458,116.91045273289188L48.23909207303629,117.91949392763831L48.429172390409406,115.45886342102467L48.62068188310111,116.72741000353503L48.81004761281493,117.30716290616014L48.99869875486944,118.21303519865717L49.18949365990185,118.70054660098933L49.37957397727497,117.55314024027467L49.570368882307385,117.7974848782591L49.76259296265838,119.08123302795221L49.95624621832798,119.26450316855573L50.1463265357011,116.8093946734964L50.337121440733505,113.07734287297191L50.52791634576592,111.20570166423366L50.71942583845763,117.29320918530541L50.910220743490044,110.0077342030044L51.106017762137526,116.36528383293683L51.297527254829234,114.76935252105372L51.49046592283954,116.27884423496333L51.67983165255335,116.34538243332244L51.87134114524506,116.16791419503835L52.063565225596065,116.26677977677343L52.25507471828777,116.5942578030679L52.44515503566089,117.327280054906L52.6373791160119,117.39538097670392L52.83174695934079,118.35650837108957L53.0218272767139,117.31237004060362L53.2140513570649,118.35530134216482L53.40270249911942,119.69131909225149L53.59635575478902,119.02647356596022L53.79072359811792,117.53299976729839L53.9893789674026,119.95119183664468L54.181603047753605,118.6090106586669L54.37025418980812,119.59247683474686L54.558190744203344,118.82308044555322L54.74827106157645,115.63601095114035L54.94120972958676,119.49305730253909L55.13057545930058,119.99958961478688L55.32137036433299,117.31523308988892L55.51073609404679,117.38144474902201L55.703674762057105,117.84490303872325L55.895184254748806,115.9472902994012L56.087408335099816,118.32818692428998L56.276059477154334,118.88806175153114L56.46471061920885,119.8663965969165L56.65550552424126,119.74685408490527L56.84772960459226,118.64930326673468L57.03638074664678,119.49002515258319L57.226461064019894,118.48575376295967L57.417970556711595,117.8973825571907L57.61019463706262,115.83045339811986L57.80027495443572,117.38298414823039L57.98892609649024,116.85887702835359L58.17972100152265,117.38910675871826L58.37051590655506,118.3880485616885L58.56917127583974,117.70097504379747L58.76068076853145,118.91957278684202L58.952904848882454,120.36130178029495L59.14441434157417,120.16078337128846L59.34021136022165,119.70248556756985L59.531006265254064,118.2973231363735L59.72823245922015,120.56065397777998L59.91688360127466,119.15377138458942L60.10910768162568,122.69142155553766L60.29847341133949,121.5681382801452L60.49355584232769,121.3894105334179L60.69292579927167,123.37245409774735L60.89015199323775,120.71306616152467L61.089521950181734,122.40933831271752L61.28460438116992,121.40236131236415L61.47397011088375,122.16770803204938L61.66405042825685,121.41167934242092L61.85698909626715,121.48189693813038L62.05207152725534,122.25531675707317L62.243581019947044,121.07068492459227L62.44366556455034,117.56003838142433L62.63588964490133,119.84373710705378L62.83025748823024,121.07327974522761L63.02248156858124,122.26501380587445L63.21613482425084,122.34929008147556L63.40835890460185,122.06633218001429L63.60487051090865,121.90843880211857L63.80281129253401,121.55979695223769L63.99574996054431,121.00862497847571L64.18440110259884,121.54162737673273L64.37448141997194,119.06478944549906L64.56599091266365,118.6858989842793L64.76321710662974,121.73460331272395L64.96187247591443,120.64508769193648L65.162671608177,120.65309956508918L65.35561027618729,118.96333487418627L65.54640518121971,118.35126625030043L65.73862926157072,119.04471894521407L65.93085334192172,121.16790906361084L66.12164824695414,122.16747187421628L66.31244315198654,121.93104289693402L66.50609640765614,120.82086492351439L66.69760590034787,122.21530403977056L66.89983420792902,123.07078433242363L67.08919993764283,122.3452899759568L67.27999484267524,123.70228787131524L67.47078974770766,122.45559609271777L67.66587217869585,122.9723327557787L67.86238378500263,125.5224116860913L68.05460786535365,124.60576943019322L68.24969029634184,123.27748366249409L68.46192283115317,123.33257841029848L68.65200314852628,118.67442929396537L68.843512641218,113.88858876261455L69.03716589688759,119.2127233770012L69.23367750319439,120.29734090939836L69.42661617120469,116.00528599836534L69.61741107623709,119.03044451619093L69.8096351565881,118.97591246544565L70.00614676289489,119.1104233023353L70.20480213217958,121.21545550734234L70.40274291380496,120.41087743207387L70.59353781883736,120.73285093998689L70.78719107450696,123.14819162216313L70.98012974251726,123.68621747654899L71.17449758584615,122.89467473056209L71.36743625385647,122.38539890570996L71.55608739591098,123.4802616063235L71.74759688860269,121.904109241845L71.94125014427229,123.79683847042077L72.1320450493047,122.0735043808715L72.32569830497431,122.78837163484867L72.5193515606439,123.82969064898138L72.7101464656763,123.18730052553659L72.9037997213459,124.04555057055322L73.0967383893562,124.24696404690246L73.293249995663,124.72505829119852L73.49404912792558,123.97888700445554L73.69341908486955,123.28477831556106L73.88349940224268,125.41222219048248L74.07715265791226,123.42203558058387L74.29295813102009,123.26767582359828L74.49161350030477,124.08482857459728L74.70098768447892,125.23681231553384L74.8960701154671,124.16467324641671L75.0897233711367,121.53279040892858L75.2833766268063,122.07983690943325L75.4784590577945,123.99106516826879L75.67639983941989,124.31540025451282L75.86933850743019,121.78341509595629L76.06013341246259,123.67692277072265L76.2516429051543,124.16698817628688L76.44386698550531,124.1137039718696L76.63466189053771,123.63726574793407L76.82688597088871,124.0112202188891L77.01839546358043,124.72566763671851L77.20919036861285,123.81473398621816L77.40069986130456,124.62460374626542L77.59435311697415,124.3432318924734L77.78443343434725,123.94761795803535L77.97522833937967,123.41488087289947L78.16673783207139,124.3879677664381L78.35824732476308,123.82125893968094L78.54904222979549,124.31221066600153L78.73983713482791,123.31386946196486L78.92777368922313,123.89868663812206L79.12142694489272,122.84717785082024L79.31365102524373,123.8667353579618L79.50444593027613,123.22599250829111L79.69667001062716,124.84389232971046L79.88675032800026,124.67962560584974L80.08254734664776,124.77329571525652L80.27405683933947,123.96455134932751L80.46413715671257,125.14558541926459L80.65493206174497,126.07791905118444L80.84429779145879,123.10768034943504L81.04080939776559,124.32537427855044L81.23446265343519,125.791086411943L81.42883049676408,126.05938795010783L81.61962540179648,126.53147620506817L81.81542242044398,125.30325138591363L82.0055027378171,124.45219395045584L82.2005851688053,125.50597393469577L82.39280924915629,125.33279735481081L82.59075003078169,125.10294289498098L82.79512210134074,123.92541329066601L82.9973504089219,124.95830351102711L83.19457660288799,126.62163893332404L83.38179856962392,125.94929758247832L83.57330806231563,124.50893014097676L83.76624673032593,121.86356006724247L83.95918539833625,123.66680880130245L84.15283865400582,125.14534634590268L84.3529231986091,122.32920208801775L84.5451472789601,126.3159020053191L84.73880053462973,125.25897616549992L84.93173920264002,124.51007302826783L85.12324869533172,125.95863602123674L85.31690195100133,124.29899748946295L85.51126979433023,125.95715784813325L85.70277928702194,126.36796751869642L85.89786171801012,126.70219499417158L86.1022337885692,126.53449086185122L86.29660163189808,125.81110151718073L86.49025488756767,126.9629482282635L86.68605190621518,125.87279119113921L86.87970516188477,124.28950744320676L87.07264382989509,122.6706688215126L87.26558249790538,123.49867025519035L87.46423786719006,125.76660180104912L87.65789112285965,126.03631445515498L87.85154437852927,125.69013039605565L88.04948516015465,125.5151112019667L88.24956970475793,126.64805070875718L88.44608131106472,124.72676387554871L88.64044915439362,125.663013062652L88.84910875090846,124.42697462630342L89.05348082146752,124.59866720202729L89.25142160309291,123.12627559214533L89.45222073535548,123.65455483374029L89.66302409484821,124.37604033810197L89.85310441222131,125.16767346548178L90.04175555427584,126.91159118838549L90.23469422228614,125.26586264453438L90.42691830263715,124.85914346088285L90.61914238298816,126.43617923058889L90.81708316461354,124.53617575764778L91.01359477092032,124.7678320142783L91.20724802658994,124.55087002281866L91.40233045757813,127.38578737067093L91.59598371324772,129.02616591916717L91.7939244948731,126.97430712848289L91.99972574075076,127.44001912194943L92.20338322365053,127.79092050665321L92.39560730400154,127.02637555738902L92.59211891030832,127.77956743749142L92.78434299065931,127.67242466948252L92.97370872037314,128.36598232343312L93.16450362540556,128.34088253596164L93.35958605639375,127.86468338538802L93.55038096142616,129.0205914280944L93.74617798007365,128.98407151429868L93.94197499872114,128.58145156414523L94.13705742970933,129.02154480601322L94.33571279899404,128.63117299236433L94.5357973435973,129.3058292730802L94.73874023883776,128.55099303473247L94.94382689705611,128.51998930143344L95.1431968540001,129.26831224843357L95.34399598626267,129.99682126168346L95.53979300491017,128.72898606820124L95.73273167292045,128.6071053020894L95.93781833113883,129.1176901993744L96.12789864851194,128.89084456527007L96.31869355354436,129.04253661340022L96.50948845857677,129.16797140912382L96.70242712658705,130.26234430089835L96.90251167119035,129.22360261422813L97.1068837417494,129.8496978471888L97.3012515850783,129.0466562555999L97.4913319024514,129.14149257652818L97.684985158121,129.5847754069075L97.87935300144989,129.2158735473694L98.0751500200974,129.58561507920297L98.2716616264042,130.30654371756313L98.46602946973309,129.68566436563236L98.6546806117876,129.51828968806686L98.84619010447932,128.99671907824933L99.04556006142327,129.08830166903263L99.237069554115,129.4232317869495L99.43429574808107,129.56714811976005L99.63580946800295,129.8206766734763L99.83875236324343,129.33031388397407L100.03740773252808,129.32280348177562L100.23391933883488,129.58955687414564L100.43328929577888,129.70790985040497L100.63194466506354,129.9316475308045L100.83060003434824,129.44139553139684L101.0321137542701,129.33851818202783L101.23362747419199,129.06614365012416L101.42656614220228,129.47993882218236L101.61664645957539,129.9296999575636L101.80887053992639,129.33423235468632L101.99823626964022,129.4319492180727L102.1904603499912,129.10114165788434L102.38125525502362,129.54231364540973L102.57347933537463,129.70270271596146L102.76427424040703,128.78775729782717L102.95578373309876,129.18663662452542L103.14872240110904,129.89793527124678L103.34594859507513,129.4728890735349L103.54317478904123,129.57835541248164L103.73682804471082,129.88206021691036L103.92762294974324,130.720997799131L104.11913244243493,129.5782329602719L104.32636286363118,130.06284924250195L104.51858694398219,129.60870898285748L104.71009643667391,130.64539813724983L104.90232051702492,129.87824087417746L105.09311542205734,129.85640939449502L105.2853395024083,130.24861216023268L105.47899275807794,130.33302838121637L105.67193142608822,129.86710646967597L105.86201174346134,130.22525294345706L106.05495041147164,130.07929574048387L106.24574531650406,129.8379482661097L106.43582563387716,129.75433090001823L106.63233724018394,130.17414955458497L106.83170719712793,129.49830082258836L107.0296479787533,129.99608654842493L107.228303348038,128.91759162651562L107.42910248030057,130.0339592675856L107.63561831383753,129.67215963621342L107.84356332269309,130.31775975687114L108.03507281538478,129.62540621631652L108.2258677204172,129.97861086877526L108.41594803779032,129.98592593054389L108.60674294282272,130.12380420320187L108.79682326019582,129.27841164020975L108.98690357756894,129.75059319209183L109.17626930728274,129.78352992098775L109.36849338763375,130.5096919335506L109.55857370500686,129.86353494689138L109.7715208274775,130.74485265580324L110.00304722908987,130.6488588699399L110.2117068256047,130.34953610530317L110.44752075317285,129.15769125456183L110.64831988543543,130.04844944574023L110.83625643983065,130.39687263096081L111.0399139227304,131.03448711822512L111.24571516860807,129.9559047304517L111.44651430087065,130.34219188824653L111.64874260845183,129.60886350588407L111.85883138028525,130.12125311549858L112.05605757425134,129.697361467193L112.27043387204056,130.48145503708633L112.47480594259962,130.17857532730906L112.67631966252151,130.33145399566234L112.87283126882829,131.02889513397952L113.07648875172806,129.73907685331702L113.27371494569414,129.81704975564443L113.46450985072654,130.78228221458576L113.65530475575896,130.0052471399263L113.86039141397733,130.27520761398046L114.06619265985498,129.82732699467763L114.27270849339193,130.3365474244825L114.46922009969872,129.91611359333814L114.67359217025776,129.4850176733585L114.87724965315753,129.5209661435087L115.07590502244223,130.74911515891432L115.26598533981534,130.17794557308747L115.46249694612213,130.0544233642591L115.65257726349525,130.76000757452513L115.84980345746132,130.44420332556086L116.0491734144053,130.57272566628762L116.2435412577342,130.00932888025153L116.43505075042592,129.8953608593131L116.62513106779902,130.39683181355758L116.83093231367667,130.84210303458104L117.06102953997043,131.31907771581646L117.2646870228702,130.812971070774L117.46620074279207,129.39485202957383L117.67200198866973,130.7173475570687L117.86351148136144,130.1481721929436L118.06216685064614,130.00286223736484L118.26153680759009,130.21154412702185L118.45876300155619,130.08473028617405L118.65813295850018,131.37126568140354L118.86393420437781,130.1961822057549L119.06973545025548,130.71338826895322L119.26267411826578,129.74423733929964L119.4534690232982,130.85783522800605L119.6456931036492,131.2960975177853L119.8379171840002,130.14439366761394L120.03442879030699,130.9144256420868L120.226652870658,129.85011768333652L120.4210207139869,129.85580296450382L120.61181561901931,130.67226181964756L120.80189593639241,131.1430322555886L120.99412001674341,130.23873434864558L121.18634409709442,130.59491867154176L121.37713900212684,130.14058015593864L121.56721931949996,129.64844472492373L121.76587468878463,131.28470363122028L121.96167170743212,130.51346462782269L122.1639000150133,131.6096305698115L122.35540950770499,130.00489144541226L122.54620441273741,129.31705405897463L122.73842849308842,129.7946876497197L122.93208174875801,130.801591761853L123.12430582910902,129.78052401079108L123.33010707498667,130.500653794259L123.52018739235979,131.0441316875079L123.71812817398518,129.73739750872608L123.91178142965478,130.60990157406422L124.11186597425804,130.2974793385123L124.31552345715782,130.78120346892837L124.52346846601336,130.18453175265512L124.72283842295734,130.33908101901295L124.92435214287921,130.45011893350366L125.15230560619509,131.17526051098523L125.3738277805773,130.27591608747977L125.60249583155246,130.4663263581237L125.80329496381503,130.53459638059223L125.99266069352883,130.68439041947116L126.19203065047283,130.45594707558234L126.38925684443889,130.55564066749767L126.58219551244923,130.60953130190615L126.78299464471179,130.65462578591368L126.98450836463367,130.47597675846407L127.20174301306007,129.95181132801122L127.39468168107038,129.99420311681772L127.59548081333297,131.12231450790918L127.79270700729903,130.59739687102496L127.98564567530934,131.3934178692544L128.17786975566037,131.01841089240122L128.37080842367064,131.14293312760927L128.56374709168097,130.30608889506976L128.75239823373548,130.30194884416844L128.94962442770156,130.65989997751967L129.14756520932693,130.41702185052353L129.34622057861162,130.50498043900376L129.5420175972591,130.49084012430558L129.7392437912252,130.50729536887394L129.935755397532,130.74152895296697L130.12726489022373,131.15675856519664L130.3216327335526,130.32631391838135L130.5131422262443,130.876287609805L130.70465171893602,130.41058727845365L130.8947320363091,131.72998651435896L131.08695611666013,130.63040065708336L131.27918019701116,130.62868341061795L131.4835522675702,130.72971523025421L131.6750617602619,130.9491320969666L131.87228795422797,130.81412562018028L132.0616536839418,130.96172718139877L132.2574507025893,130.6606813392391L132.4511039582589,130.29588454425664L132.64547180158777,131.47864752277434L132.84126882023529,130.60123662245948L133.04564089079435,130.98801358909336L133.24000873412325,130.3231651472733L133.43723492808934,131.0066204939189L133.63160277141822,130.74709178192452L133.98175072447395,130.9815819325523L134.3026005834985,130.84329257033298L134.4976830144867,131.5596788148169L134.6913362701563,130.01257386381013L134.89070622710028,131.49505903441062L135.09079077170355,130.95967464912096L135.28730237801034,130.68803774600462L135.4923890362287,130.80366761836126L135.68890064253546,130.41691689148658L135.88898518713876,131.15176426435582L136.08835514408275,130.04972644735628L136.28200839975236,131.27385786407035L136.47566165542196,131.86425536235794L136.66717114811365,130.59496532000261L136.86511192973904,130.90839049746305L137.06090894838653,130.73316721635786L137.2631372559677,131.64273056832042L137.4582196869559,130.92557462423233L137.6525875302848,130.2897998356432L137.8433824353172,131.1144804820135L138.03346275269033,131.23644288293184L138.2271160083599,130.90660036277754L138.43506101721545,130.4832305941278L138.62657050990717,130.90861790870974L138.82022376557677,130.85462523079315L139.01173325826846,130.09150014405634L139.2032427509602,130.5649324577952L139.39260848067397,131.49810284648174L139.60055348952955,130.9772232169907L139.80349638477,130.6675590716871L140.00143716639542,131.19745060071054L140.20652382461375,131.5144822873012L140.40089166794266,131.06322257011482L140.59740327424944,130.8815268150653L140.79248570523762,130.38365070783584L140.98613896090723,130.73448503537713L141.18336515487331,130.489749716533L141.3848788747952,130.5771426924253L141.5792467181241,130.81963596961936L141.7728999737937,130.95864838298203L141.96869699244118,131.23233490284736L142.17163988768164,131.4978258712454L142.36386396803266,130.8462722407704L142.55823181136154,131.02533818883893L142.75259965469047,130.8290764518859L142.94410914738216,130.9741910670348L143.13347487709598,131.5797668082747L143.32855730808416,130.8591180606797L143.52149597609449,131.36099135789914L143.72158052069773,130.74788772128795L143.92237965296033,131.25424801733632L144.1174620839485,131.40356390949142L144.31182992727742,130.96565148316864L144.50548318294702,130.56008101786577L144.69842185095732,130.97964602142662L144.8942188696048,131.01125618471684L145.08501377463722,130.78069908244532L145.27652326732894,131.35440226280267L145.473749461295,130.47798555780986L145.6674027169646,131.1827184336652L145.8617705602935,131.15984902572862L146.0561384036224,130.21012718002322L146.256937535885,131.2335302696569L146.4513053792139,130.88224986620864L146.64495863488347,131.3225326174489L146.85576199437622,130.02753344210214L147.0487006623865,131.13738779182455L147.23878097975964,131.21479216603524L147.43029047245133,130.95991372248287L147.62251455280236,130.5147241362659L147.81473863315333,131.25402643714725L148.00553353818574,130.64705415761037L148.19990138151465,130.87551207914316L148.40070051377722,131.03158908259417L148.59935588306192,131.56379554148776L148.7972966646873,130.8131314248582L148.9923790956755,130.8055860363141L149.1867469390044,130.74192254935548L149.3789710193554,130.5018841474142L149.56976592438778,131.4010332304898L149.77342340728757,131.60796580286453L149.96707666295717,131.60409981167078L150.16358826926395,131.32060836843843L150.35152482365916,131.4737027859232L150.5437489040102,131.46846358066284L150.7345438090426,131.66695569715074L150.93534294130515,131.10960863338244L151.12971078463406,131.30046497993334L151.32765156625945,130.9232130459013L151.52273399724763,130.91386002949886L151.71638725291723,131.06878539907237L151.91146968390544,131.1334693211123L152.1058375272343,131.53641581049177L152.3080658348155,131.1478603712876L152.5010045028258,131.2657352008231L152.6953723461547,131.29046763166528L152.88616725118712,131.4526322592585L153.08053509451602,130.48879633861418L153.27132999954844,131.9923083029473L153.45998114160292,131.01603765195497L153.65077604663531,131.1249676391206L153.84157095166773,131.73621408388377L154.03165126904085,131.73893718778646L154.22244617407327,131.34862368471363L154.41324107910566,131.8119420290323L154.60403598413808,130.82601223111317L154.7976892398077,130.64476546749944L154.98634038186222,131.84980600160657L155.1778498745539,130.7399137500097L155.36935936724564,131.62752317008008L155.56872932418958,130.35661500923868L155.7602388168813,130.82700059537763L155.95103372191372,131.32286207220372L156.14182862694614,131.0654616962361L156.33476729495644,130.8421351053979L156.52842055062604,131.02234102522868L156.71921545565846,130.72605332607668L156.91143953600945,131.49451674605314L157.10151985338257,131.33969341998775L157.292314758415,131.13422152754367L157.48453883876596,131.147230617066L157.68390879570995,131.1149382200357L157.87827663903886,130.83493083372383L158.07693200832355,131.01422419303904L158.27272902697104,130.55570772466018L158.46495310732203,130.77287380313606L158.65646260001375,130.8613688489162L158.84725750504614,130.01700255206302L159.04591287433084,130.6413980317311L159.23813695468183,131.0309155954405L159.43107562269216,131.3768460035339L159.62472887836174,130.86057582508158L159.81838213403134,131.1532307753441L160.0191812662939,130.95614685926842L160.2156928726007,132.33001400428532L160.4093461282703,131.83447032009883L160.60442855925848,131.39495726846278L160.79808181492805,131.9267147359206L160.99530800889417,131.11418892913312L161.1889612645638,130.90426210867693L161.39190415980428,131.15986068784383L161.59127411674822,131.84465426221033L161.787785723055,131.10292041030664L161.98000980340606,131.52922903199055L162.16937553311985,131.73315277863983L162.36588713942663,131.6897813721553L162.5602549827555,130.80410494768182L162.75676658906232,130.83571511097205L162.95041984473193,131.2095762850053L163.1447876880608,130.87905736216854L163.3405847067083,131.2238711227301L163.5378109006744,130.6803028480883L163.73360791932188,130.9955852173967L163.9251174120136,131.11078067596156L164.1180560800239,130.881456842374L164.3095655727156,131.39215252975356L164.51893975688975,131.1681699449345L164.71187842490002,130.96556984836212L164.90338791759177,131.0954187546946L165.09632658560207,130.90175766943452L165.29569654254607,132.15443502866606L165.49506649948998,131.144912771667L165.69157810579676,131.0414931339405L165.8859459491257,131.8378523335112L166.07817002947672,130.86482958160624L166.26896493450909,132.2413819286514L166.46619112847517,131.05398617486458L166.65770062116692,131.18608586943353L166.84921011385862,131.35874640072024L167.04143419420964,131.14034705356036L167.23580203753855,131.78728248641022L167.42874070554882,131.28389894527044L167.62096478589982,131.29947370014006L167.81175969093226,131.49723693442704L168.00612753426114,130.92787497645847L168.22264759502826,132.1567966069971L168.42130296431296,131.14153658931227L168.61209786934532,131.10954449174875L168.80718030033356,130.98427005010936L168.99654603004734,131.01575776118983L169.19019928571691,130.43252954823066L169.38385254138655,131.20979786519442L169.57822038471545,131.1121393123841L169.77330281570366,131.40374467227727L169.96552689605463,130.80848698747383L170.15775097640568,130.59259207955637L170.34997505675668,131.31167227265493L170.54648666306346,131.75652365753066L170.74085450639237,131.05497453912903L170.93808070035843,130.32275405771196L171.1345923066652,131.3268213603192L171.33110391297203,131.65820036415312L171.5261863439602,130.99619456291668L171.71626666133332,131.9519165669002L171.90849074168432,130.69565019171122L172.09857105905746,130.93922513009147L172.28722220111194,131.06209134493898L172.48587757039664,131.43888845647763L172.67810165074764,130.8055743741989L172.87032573109866,131.75660237680836L173.06254981144966,130.73701279884997L173.2662072943494,131.02599418281977L173.46057513767832,131.17135370238822L173.65137004271074,131.73381168814947L173.84002118476525,131.3942050620314L174.03367444043485,131.13108733407964L174.22661310844512,131.2113372644028L174.41955177645545,131.4606295547672L174.61177585680647,132.12479576284719L174.80471452481675,131.43906338820585L175.0155178843095,131.03888956671875L175.22131913018714,131.55708107865274L175.4464142428658,131.9908155521998L175.76083281295672,130.59426559308972L175.95734441926348,131.11714235981134L176.1481393242959,131.75221159042994L176.3460801059213,130.84804196675427L176.5404479492502,131.07633661867408L176.73624496789768,131.73084951088487L176.93132739888586,131.6798860673954L177.12355147923688,131.67215700053663L177.31506097192857,131.01150692019397L177.50585587696096,130.56779842260931L177.70022372028987,130.17570936249498L177.8910186253223,131.33318012864018L178.0868156439698,131.4431451285311L178.2783251366615,131.00376910674882L178.46912004169388,131.21333440163335L178.6634878850228,131.60292776909165L178.8557119653738,131.55477197984018L179.05579650997709,131.05600372079675L179.25016435330596,131.34699098858354L179.4445321966349,132.01916906981623L179.64604591655674,131.70772645194236L179.83826999690774,131.38673547723621L180.02906490194016,131.4558859894035L180.22128898229116,131.72442951645903L180.4120838873236,131.58633257914073L180.60216420469666,131.01234659248945L180.7929591097291,130.43120881368256L180.9851831900801,131.95227226141424L181.1802656210683,131.73643566407287L181.37106052610073,131.60671795653653L181.563999194111,131.08910371930568L181.75407951148412,131.293027465955L181.9534494684281,130.9133498119582L182.14424437346054,131.20197258588516L182.3350392784929,131.8802616154905L182.52226124522883,131.5996915321195L182.71448532557986,131.85286147579288L182.90528023061225,131.62422570700303L183.1096523011713,131.49424851740318L183.3097368457746,131.60034461057154L183.50839221505927,131.37616960085143L183.70347464604748,130.64827284865032L183.89498413873918,131.65248009664015L184.09363950802387,131.25641717076633L184.28514900071556,130.6044990991909L184.47665849340729,131.43665516141397L184.66816798609898,131.96270402347403L184.87111088133946,131.81509663119795L185.06690789998694,131.8622815493578L185.25841739267864,131.3833884501695L185.44992688537036,132.0135391836962L185.63857802742487,130.85350858326132L185.83080210777587,130.99313617320155L186.0223116004676,130.73630140982186L186.2181086191151,130.86378290676572L186.4089035241475,130.76514473627734L186.6011276044985,131.61750832863922L186.79263709719018,131.54192324440206L186.98343200222263,131.23194130645888L187.174226907255,131.8816756469603L187.36573639994677,130.94146134068393L187.55724589263843,131.1182240209975L187.74804079767085,131.54104858576093L187.93883570270327,130.8724886757737L188.1289160200764,131.59903845366748L188.32042551276808,131.41919989046593L188.51908088205278,130.7669057156748L188.71059037474444,131.14572037314565L188.9028144550955,131.23369353926992L189.0978968860837,130.6124584928251L189.28940637877537,131.80885739955792L189.4787721084892,131.58130329195427L189.68385876670754,131.01890070124028L189.88465789897015,131.92737947648786L190.07402362868393,131.64600179163824L190.26624770903496,131.8061867751737L190.4663322536382,130.9304581349786L190.65641257101134,130.99345688136995L190.84935123902164,130.30656704179356L191.03943155639476,131.6272432793149L191.23379939972367,131.4414133044217L191.42530889241536,131.33074274656025L191.61896214808496,131.24792131983222L191.80975705311738,132.54129363010645L192.00198113346835,131.35027387401655L192.1934906261601,131.21265508342208L192.38714388182967,131.40644153642074L192.5779387868621,131.61632753947367L192.77016286721312,131.1282476090248L192.96095777224548,131.2480962515604L193.15246726493723,130.72828079008275L193.3461205206068,131.2746188170881L193.5383446009578,131.40137143183102L193.7384291455611,131.14200598944967L193.92993863825276,130.71202963253066L194.12216271860385,131.62773600368274L194.31009927299905,131.6061523439486L194.5001795903721,131.47071145337054L194.6902599077453,131.05908251921352L194.88105481277765,130.8648587368943L195.0725643054694,130.61573554720053L195.26193003518318,131.81434150923778L195.45486870319345,131.4688192751769L195.64494902056657,131.32769601896035L195.83717310091757,131.13215733315064L196.03082635658723,131.0821035346479L196.2251941999161,131.1205506129829L196.41956204324498,131.0147314950509L196.61392988657389,131.7171698497377L196.80543937926564,131.2027656097198L197.00052181025382,130.7241903031711L197.1934604782641,131.89895307065132L197.38782832159296,131.16431561585597L197.5879128661963,131.4367601204509L197.78085153420656,131.9728617258263L197.97307561455756,130.99227317667564L198.1652996949086,131.84527235431673L198.36038212589676,131.54276291669754L198.55046244326988,131.66801694963533L198.74125734830233,131.48704133020033L198.9420564805649,130.88713046142612L199.1328513855973,131.9038220037536L199.32936299190408,131.48607337463747L199.52158707225504,131.45618045781265L199.71952785388044,131.1868351603361L199.91389569720934,130.8773167914727L200.1068343652197,131.55523554891997L200.3047751468451,131.3440113181461L200.50271592847042,131.47038491414452L200.69851294711788,131.21685052937067L200.89145161512826,130.63806849783722L201.09225074739078,131.0031335214696L201.29376446731268,131.28805065828698L201.4902760736195,131.98531686487593L201.68535850460768,131.69431793497392L201.87972634793655,130.753695454665L202.07552336658404,130.83991347244944L202.26631827161648,131.03367077016006L202.45925693962678,131.19386741581073L202.6621998348672,130.90667325099764L202.85585309053678,131.03193311499302L203.04664799556923,131.7150006963077L203.23744290060162,131.67435822478348L203.43181074393058,131.05889300984126L203.62832235023737,131.2723534512076L203.82054643058834,131.27042920219714L204.01920179987303,131.20273353890292L204.2121404678833,130.9265688195544L204.4072228988715,130.43757341306113L204.6001615668818,130.94047006089068L204.80953575105596,131.54494081671393L205.01033488331856,130.88110697891756L205.20470272664744,131.7899327020928L205.3976413946577,131.80612263354L205.59415300096452,131.26358937162354L205.7892354319527,131.18305080394884L205.98145951230373,131.55723560167934L206.18082946924767,130.73783206244383L206.37376813725803,131.67995604008667L206.57599644483918,131.99811020526676L206.7810831030575,131.41913283330345L206.99188646255027,131.02169377783426L207.18553971821987,131.57841983396736L207.38205132452663,131.81017813410602L207.57713375551484,130.97554387239973L207.7707870111844,131.458923970417L207.96301109153546,131.94451403926746L208.15237682124922,131.50844131161983L208.34888842755603,131.4962923030946L208.5439708585443,130.78348049692408L208.73690952655457,131.45228239580206L208.93056278222414,131.27100647690028L209.12635980087165,131.07364267005943L209.32287140717844,131.48859530705272L209.53010182837468,131.33456792035076L209.7251842593629,131.32903133115244L209.93384385587774,130.92024503757906L210.12892628686592,131.51647067794534L210.3254378931727,130.83210568631299L210.5198057365016,131.37642908291497L210.71488816748976,130.9574588472301L210.90997059847797,131.29549108779415L211.12220313328936,131.07033062933837L211.32514602852976,131.34613965417284L211.52380139781445,131.22708111994302L211.72031300412127,131.47695360053936L211.91539543510947,132.30540402565288L212.11047786609765,131.15869447632232L212.30841864772304,131.3065030400859L212.50564484168913,131.19369831514013L212.70930232458886,131.70662438205454L212.90652851855498,131.45110452216534L213.10161094954316,131.50586398415732L213.29812255584994,131.4979920563872L213.49463416215676,131.9481088862825L213.6897165931449,130.8374760903695L213.92267217007588,131.25395937998476L214.13133176659076,132.11021228777082L214.3335600741719,130.8458057561618L214.537932144731,131.15216952285954L214.74444797826797,130.64364298891L214.9438179352119,131.62963984399158L215.1417587168373,130.7272282841846L215.33541197250688,131.77659415781565L215.55121744561472,131.04026569631412L215.74629987660293,131.62297494514624L215.93852395695393,131.47804400831197L216.12931886198638,130.67957396588736L216.33297634488608,132.22964109415872L216.54163594140095,131.9175949618225L216.74743718727862,131.6309634940685L216.94823631954114,130.7194496533362L217.1404603998922,131.2725983556271L217.33125530492458,130.53321150441045L217.52205020995703,131.26420163267233L217.7164180532859,132.46902058659037L217.9150734225706,131.26290130682585L218.12230384376684,130.75754686821477L218.35383024537916,131.89735536086687L218.6010775754961,131.1327695941994L218.7975891818029,131.10702255933353L219.00196125236195,131.59130647127995L219.20204579696525,131.26453400295594L219.39998657859056,131.89709296327453L219.59935653553455,131.7452668008194L219.79944108013788,131.53574815439572L220.0002402124004,131.58347244538427L220.201039344663,131.32944242071378L220.39755095096982,131.61234201159897L220.5912042066394,131.38505904817407L220.78628663762757,130.9573101552611L220.98065448095645,131.15752243374322L221.18073902555975,131.46962687665552L221.3722485182515,132.1030954819609L221.56661636158037,131.34058557180168L221.75884044193137,131.52972175635838L221.95320828526025,131.59721916369392L222.1440031902927,131.55646007101754L222.33694185830296,131.3395738833068L222.52988052631326,130.34221229694816L222.72710672027935,131.0966345302058L222.9193308006304,131.1763450877002L223.11870075757432,131.33689159680736L223.31449777622183,131.3529794847464L223.50600726891358,130.9663337169087L223.69966052458315,131.64654407999572L223.89188460493415,130.84998370893757L224.09768585081179,130.56734651564472L224.28990993116284,130.49935929947014L224.48427777449172,131.96869835069455L224.67507267952408,131.53723507408563L224.86729675987516,130.94966855426648L225.05880625256682,131.62770976392352L225.25245950823648,130.80204949987518L225.44611276390606,131.43756189087193L225.64119519489424,131.74684118637342L225.83341927524523,130.51318473705751L226.02492876793696,130.8559226411108L226.2257279001995,130.53447975944007L226.42438326948422,130.95531884908814L226.62661157706535,131.65101650118066L226.82669612166865,131.26219574885533L227.01963478967895,131.81960986978615L227.22257768491943,131.39421672414664L227.41980387888555,130.90249529822185L227.61845924817015,131.27675298417245L227.8099687408619,131.63233962366385L228.0036219965315,131.12815139657428L228.19656066454178,131.34940504643305L228.39593062148577,132.52566931124719" style="fill: none;" fill="none"></path></g></g></g></g></g></g><g transform="translate(82, 178)" clip-path="url(#clip_1)"><clipPath id="clip_1"><rect width="247" height="21"></rect></clipPath><g><g><line x1="7.255346049351583" y1="0" x2="7.255346049351583" y2="5" style="visibility: inherit;" fill="rgb(0, 0, 0)" stroke="rgb(204, 204, 204)" stroke-width="1px"></line><line x1="32.98050178405857" y1="0" x2="32.98050178405857" y2="5" style="visibility: inherit;" fill="rgb(0, 0, 0)" stroke="rgb(204, 204, 204)" stroke-width="1px"></line><line x1="58.705657518765555" y1="0" x2="58.705657518765555" y2="5" style="visibility: inherit;" fill="rgb(0, 0, 0)" stroke="rgb(204, 204, 204)" stroke-width="1px"></line><line x1="84.43081325347252" y1="0" x2="84.43081325347252" y2="5" style="visibility: inherit;" fill="rgb(0, 0, 0)" stroke="rgb(204, 204, 204)" stroke-width="1px"></line><line x1="110.15596898817951" y1="0" x2="110.15596898817951" y2="5" style="visibility: inherit;" fill="rgb(0, 0, 0)" stroke="rgb(204, 204, 204)" stroke-width="1px"></line><line x1="135.88112472288648" y1="0" x2="135.88112472288648" y2="5" style="visibility: inherit;" fill="rgb(0, 0, 0)" stroke="rgb(204, 204, 204)" stroke-width="1px"></line><line x1="161.60628045759347" y1="0" x2="161.60628045759347" y2="5" style="visibility: inherit;" fill="rgb(0, 0, 0)" stroke="rgb(204, 204, 204)" stroke-width="1px"></line><line x1="187.33143619230046" y1="0" x2="187.33143619230046" y2="5" style="visibility: inherit;" fill="rgb(0, 0, 0)" stroke="rgb(204, 204, 204)" stroke-width="1px"></line><line x1="213.05659192700747" y1="0" x2="213.05659192700747" y2="5" style="visibility: inherit;" fill="rgb(0, 0, 0)" stroke="rgb(204, 204, 204)" stroke-width="1px"></line><line x1="238.7817476617144" y1="0" x2="238.7817476617144" y2="5" style="visibility: inherit;" fill="rgb(0, 0, 0)" stroke="rgb(204, 204, 204)" stroke-width="1px"></line></g><g transform="translate(0, 8)"><text x="7.255346049351583" y="0" dx="0em" dy="0.95em" style="text-anchor: middle; visibility: hidden; font-family: &quot;Helvetica Neue&quot;, sans-serif; font-size: 12px; font-weight: 200;" fill="rgb(50, 49, 63)" stroke="none" stroke-width="1px">-0.01</text><text x="32.98050178405857" y="0" dx="0em" dy="0.95em" style="text-anchor: middle; visibility: inherit; font-family: &quot;Helvetica Neue&quot;, sans-serif; font-size: 12px; font-weight: 200;" fill="rgb(50, 49, 63)" stroke="none" stroke-width="1px">0</text><text x="58.705657518765555" y="0" dx="0em" dy="0.95em" style="text-anchor: middle; visibility: hidden; font-family: &quot;Helvetica Neue&quot;, sans-serif; font-size: 12px; font-weight: 200;" fill="rgb(50, 49, 63)" stroke="none" stroke-width="1px">0.01</text><text x="84.43081325347252" y="0" dx="0em" dy="0.95em" style="text-anchor: middle; visibility: inherit; font-family: &quot;Helvetica Neue&quot;, sans-serif; font-size: 12px; font-weight: 200;" fill="rgb(50, 49, 63)" stroke="none" stroke-width="1px">0.02</text><text x="110.15596898817951" y="0" dx="0em" dy="0.95em" style="text-anchor: middle; visibility: hidden; font-family: &quot;Helvetica Neue&quot;, sans-serif; font-size: 12px; font-weight: 200;" fill="rgb(50, 49, 63)" stroke="none" stroke-width="1px">0.03</text><text x="135.88112472288648" y="0" dx="0em" dy="0.95em" style="text-anchor: middle; visibility: inherit; font-family: &quot;Helvetica Neue&quot;, sans-serif; font-size: 12px; font-weight: 200;" fill="rgb(50, 49, 63)" stroke="none" stroke-width="1px">0.04</text><text x="161.60628045759347" y="0" dx="0em" dy="0.95em" style="text-anchor: middle; visibility: hidden; font-family: &quot;Helvetica Neue&quot;, sans-serif; font-size: 12px; font-weight: 200;" fill="rgb(50, 49, 63)" stroke="none" stroke-width="1px">0.05</text><text x="187.33143619230046" y="0" dx="0em" dy="0.95em" style="text-anchor: middle; visibility: inherit; font-family: &quot;Helvetica Neue&quot;, sans-serif; font-size: 12px; font-weight: 200;" fill="rgb(50, 49, 63)" stroke="none" stroke-width="1px">0.06</text><text x="213.05659192700747" y="0" dx="0em" dy="0.95em" style="text-anchor: middle; visibility: hidden; font-family: &quot;Helvetica Neue&quot;, sans-serif; font-size: 12px; font-weight: 200;" fill="rgb(50, 49, 63)" stroke="none" stroke-width="1px">0.07</text><text x="238.7817476617144" y="0" dx="0em" dy="0.95em" style="text-anchor: middle; visibility: hidden; font-family: &quot;Helvetica Neue&quot;, sans-serif; font-size: 12px; font-weight: 200;" fill="rgb(50, 49, 63)" stroke="none" stroke-width="1px">0.08</text></g><line x1="0" y1="0" x2="248" y2="0" fill="rgb(0, 0, 0)" stroke="rgb(204, 204, 204)" stroke-width="1px"></line></g></g></g></g></svg>