<svg viewBox="0 0 330 200" xmlns="http://www.w3.org/2000/svg"><g><g><g><g><g><line x1="70" y1="178" x2="65" y2="178" style="visibility: inherit;" fill="rgb(0, 0, 0)" stroke="rgb(204, 204, 204)" stroke-width="1px"></line><line x1="70" y1="164.30769230769232" x2="65" y2="164.30769230769232" style="visibility: inherit;" fill="rgb(0, 0, 0)" stroke="rgb(204, 204, 204)" stroke-width="1px"></line><line x1="70" y1="150.6153846153846" x2="65" y2="150.6153846153846" style="visibility: inherit;" fill="rgb(0, 0, 0)" stroke="rgb(204, 204, 204)" stroke-width="1px"></line><line x1="70" y1="136.92307692307693" x2="65" y2="136.92307692307693" style="visibility: inherit;" fill="rgb(0, 0, 0)" stroke="rgb(204, 204, 204)" stroke-width="1px"></line><line x1="70" y1="123.23076923076924" x2="65" y2="123.23076923076924" style="visibility: inherit;" fill="rgb(0, 0, 0)" stroke="rgb(204, 204, 204)" stroke-width="1px"></line><line x1="70" y1="109.53846153846155" x2="65" y2="109.53846153846155" style="visibility: inherit;" fill="rgb(0, 0, 0)" stroke="rgb(204, 204, 204)" stroke-width="1px"></line><line x1="70" y1="95.84615384615385" x2="65" y2="95.84615384615385" style="visibility: inherit;" fill="rgb(0, 0, 0)" stroke="rgb(204, 204, 204)" stroke-width="1px"></line><line x1="70" y1="82.15384615384616" x2="65" y2="82.15384615384616" style="visibility: inherit;" fill="rgb(0, 0, 0)" stroke="rgb(204, 204, 204)" stroke-width="1px"></line><line x1="70" y1="68.46153846153848" x2="65" y2="68.46153846153848" style="visibility: inherit;" fill="rgb(0, 0, 0)" stroke="rgb(204, 204, 204)" stroke-width="1px"></line><line x1="70" y1="54.769230769230774" x2="65" y2="54.769230769230774" style="visibility: inherit;" fill="rgb(0, 0, 0)" stroke="rgb(204, 204, 204)" stroke-width="1px"></line><line x1="70" y1="41.07692307692312" x2="65" y2="41.07692307692312" style="visibility: inherit;" fill="rgb(0, 0, 0)" stroke="rgb(204, 204, 204)" stroke-width="1px"></line><line x1="70" y1="27.384615384615415" x2="65" y2="27.384615384615415" style="visibility: inherit;" fill="rgb(0, 0, 0)" stroke="rgb(204, 204, 204)" stroke-width="1px"></line><line x1="70" y1="13.692307692307708" x2="65" y2="13.692307692307708" style="visibility: inherit;" fill="rgb(0, 0, 0)" stroke="rgb(204, 204, 204)" stroke-width="1px"></line><line x1="70" y1="0" x2="65" y2="0" style="visibility: inherit;" fill="rgb(0, 0, 0)" stroke="rgb(204, 204, 204)" stroke-width="1px"></line></g><g transform="translate(60, 0)"><text x="0" y="178" dx="0em" dy="0.3em" style="text-anchor: end; visibility: hidden; font-family: &quot;Helvetica Neue&quot;, sans-serif; font-size: 12px; font-weight: 200;" fill="rgb(50, 49, 63)" stroke="none" stroke-width="1px">-1e-3</text><text x="0" y="164.30769230769232" dx="0em" dy="0.3em" style="text-anchor: end; visibility: inherit; font-family: &quot;Helvetica Neue&quot;, sans-serif; font-size: 12px; font-weight: 200;" fill="rgb(50, 49, 63)" stroke="none" stroke-width="1px">0</text><text x="0" y="150.6153846153846" dx="0em" dy="0.3em" style="text-anchor: end; visibility: hidden; font-family: &quot;Helvetica Neue&quot;, sans-serif; font-size: 12px; font-weight: 200;" fill="rgb(50, 49, 63)" stroke="none" stroke-width="1px">1e-3</text><text x="0" y="136.92307692307693" dx="0em" dy="0.3em" style="text-anchor: end; visibility: inherit; font-family: &quot;Helvetica Neue&quot;, sans-serif; font-size: 12px; font-weight: 200;" fill="rgb(50, 49, 63)" stroke="none" stroke-width="1px">2e-3</text><text x="0" y="123.23076923076924" dx="0em" dy="0.3em" style="text-anchor: end; visibility: hidden; font-family: &quot;Helvetica Neue&quot;, sans-serif; font-size: 12px; font-weight: 200;" fill="rgb(50, 49, 63)" stroke="none" stroke-width="1px">3e-3</text><text x="0" y="109.53846153846155" dx="0em" dy="0.3em" style="text-anchor: end; visibility: inherit; font-family: &quot;Helvetica Neue&quot;, sans-serif; font-size: 12px; font-weight: 200;" fill="rgb(50, 49, 63)" stroke="none" stroke-width="1px">4e-3</text><text x="0" y="95.84615384615385" dx="0em" dy="0.3em" style="text-anchor: end; visibility: hidden; font-family: &quot;Helvetica Neue&quot;, sans-serif; font-size: 12px; font-weight: 200;" fill="rgb(50, 49, 63)" stroke="none" stroke-width="1px">5e-3</text><text x="0" y="82.15384615384616" dx="0em" dy="0.3em" style="text-anchor: end; visibility: inherit; font-family: &quot;Helvetica Neue&quot;, sans-serif; font-size: 12px; font-weight: 200;" fill="rgb(50, 49, 63)" stroke="none" stroke-width="1px">6e-3</text><text x="0" y="68.46153846153848" dx="0em" dy="0.3em" style="text-anchor: end; visibility: hidden; font-family: &quot;Helvetica Neue&quot;, sans-serif; font-size: 12px; font-weight: 200;" fill="rgb(50, 49, 63)" stroke="none" stroke-width="1px">7e-3</text><text x="0" y="54.769230769230774" dx="0em" dy="0.3em" style="text-anchor: end; visibility: inherit; font-family: &quot;Helvetica Neue&quot;, sans-serif; font-size: 12px; font-weight: 200;" fill="rgb(50, 49, 63)" stroke="none" stroke-width="1px">8e-3</text><text x="0" y="41.07692307692312" dx="0em" dy="0.3em" style="text-anchor: end; visibility: hidden; font-family: &quot;Helvetica Neue&quot;, sans-serif; font-size: 12px; font-weight: 200;" fill="rgb(50, 49, 63)" stroke="none" stroke-width="1px">9e-3</text><text x="0" y="27.384615384615415" dx="0em" dy="0.3em" style="text-anchor: end; visibility: inherit; font-family: &quot;Helvetica Neue&quot;, sans-serif; font-size: 12px; font-weight: 200;" fill="rgb(50, 49, 63)" stroke="none" stroke-width="1px">0.01</text><text x="0" y="13.692307692307708" dx="0em" dy="0.3em" style="text-anchor: end; visibility: hidden; font-family: &quot;Helvetica Neue&quot;, sans-serif; font-size: 12px; font-weight: 200;" fill="rgb(50, 49, 63)" stroke="none" stroke-width="1px">0.011</text><text x="0" y="0" dx="0em" dy="0.3em" style="text-anchor: end; visibility: hidden; font-family: &quot;Helvetica Neue&quot;, sans-serif; font-size: 12px; font-weight: 200;" fill="rgb(50, 49, 63)" stroke="none" stroke-width="1px">0.012</text></g><line x1="70" y1="0" x2="70" y2="178" fill="rgb(0, 0, 0)" stroke="rgb(204, 204, 204)" stroke-width="1px"></line></g></g><g transform="translate(70, 0)" clip-path="url(#clip_0)"><clipPath id="clip_0"><rect width="260" height="177"></rect></clipPath><g><g><g><line x1="0" y1="0" x2="0" y2="178" fill="rgb(0, 0, 0)" stroke="rgb(60, 60, 60)" stroke-width="1px" opacity="0.25"></line><line x1="28.88888888888889" y1="0" x2="28.88888888888889" y2="178" fill="rgb(0, 0, 0)" stroke="rgb(60, 60, 60)" stroke-width="1px" opacity="0.25"></line><line x1="57.77777777777778" y1="0" x2="57.77777777777778" y2="178" fill="rgb(0, 0, 0)" stroke="rgb(60, 60, 60)" stroke-width="1px" opacity="0.25"></line><line x1="86.66666666666666" y1="0" x2="86.66666666666666" y2="178" fill="rgb(0, 0, 0)" stroke="rgb(60, 60, 60)" stroke-width="1px" opacity="0.25"></line><line x1="115.55555555555556" y1="0" x2="115.55555555555556" y2="178" fill="rgb(0, 0, 0)" stroke="rgb(60, 60, 60)" stroke-width="1px" opacity="0.25"></line><line x1="144.44444444444446" y1="0" x2="144.44444444444446" y2="178" fill="rgb(0, 0, 0)" stroke="rgb(60, 60, 60)" stroke-width="1px" opacity="0.25"></line><line x1="173.33333333333334" y1="0" x2="173.33333333333334" y2="178" fill="rgb(0, 0, 0)" stroke="rgb(60, 60, 60)" stroke-width="1px" opacity="0.25"></line><line x1="202.2222222222222" y1="0" x2="202.2222222222222" y2="178" fill="rgb(0, 0, 0)" stroke="rgb(60, 60, 60)" stroke-width="1px" opacity="0.25"></line><line x1="231.11111111111111" y1="0" x2="231.11111111111111" y2="178" fill="rgb(0, 0, 0)" stroke="rgb(60, 60, 60)" stroke-width="1px" opacity="0.25"></line><line x1="260" y1="0" x2="260" y2="178" fill="rgb(0, 0, 0)" stroke="rgb(60, 60, 60)" stroke-width="1px" opacity="0.25"></line></g><g><line x1="0" y1="178" x2="260" y2="178" fill="rgb(0, 0, 0)" stroke="rgb(60, 60, 60)" stroke-width="1px" opacity="0.25"></line><line x1="0" y1="164.30769230769232" x2="260" y2="164.30769230769232" fill="rgb(0, 0, 0)" stroke="rgb(60, 60, 60)" stroke-width="1px" opacity="0.25"></line><line x1="0" y1="150.6153846153846" x2="260" y2="150.6153846153846" fill="rgb(0, 0, 0)" stroke="rgb(60, 60, 60)" stroke-width="1px" opacity="0.25"></line><line x1="0" y1="136.92307692307693" x2="260" y2="136.92307692307693" fill="rgb(0, 0, 0)" stroke="rgb(60, 60, 60)" stroke-width="1px" opacity="0.25"></line><line x1="0" y1="123.23076923076924" x2="260" y2="123.23076923076924" fill="rgb(0, 0, 0)" stroke="rgb(60, 60, 60)" stroke-width="1px" opacity="0.25"></line><line x1="0" y1="109.53846153846155" x2="260" y2="109.53846153846155" fill="rgb(0, 0, 0)" stroke="rgb(60, 60, 60)" stroke-width="1px" opacity="0.25"></line><line x1="0" y1="95.84615384615385" x2="260" y2="95.84615384615385" fill="rgb(0, 0, 0)" stroke="rgb(60, 60, 60)" stroke-width="1px" opacity="0.25"></line><line x1="0" y1="82.15384615384616" x2="260" y2="82.15384615384616" fill="rgb(0, 0, 0)" stroke="rgb(60, 60, 60)" stroke-width="1px" opacity="0.25"></line><line x1="0" y1="68.46153846153848" x2="260" y2="68.46153846153848" fill="rgb(0, 0, 0)" stroke="rgb(60, 60, 60)" stroke-width="1px" opacity="0.25"></line><line x1="0" y1="54.769230769230774" x2="260" y2="54.769230769230774" fill="rgb(0, 0, 0)" stroke="rgb(60, 60, 60)" stroke-width="1px" opacity="0.25"></line><line x1="0" y1="41.07692307692312" x2="260" y2="41.07692307692312" fill="rgb(0, 0, 0)" stroke="rgb(60, 60, 60)" stroke-width="1px" opacity="0.25"></line><line x1="0" y1="27.384615384615415" x2="260" y2="27.384615384615415" fill="rgb(0, 0, 0)" stroke="rgb(60, 60, 60)" stroke-width="1px" opacity="0.25"></line><line x1="0" y1="13.692307692307708" x2="260" y2="13.692307692307708" fill="rgb(0, 0, 0)" stroke="rgb(60, 60, 60)" stroke-width="1px" opacity="0.25"></line><line x1="0" y1="0" x2="260" y2="0" fill="rgb(0, 0, 0)" stroke="rgb(60, 60, 60)" stroke-width="1px" opacity="0.25"></line></g></g></g><g><g><line x1="0" y1="164.30769230769232" x2="260" y2="164.30769230769232" fill="rgb(0, 0, 0)" stroke="rgb(153, 153, 153)" stroke-width="1.5px"></line></g></g><g><g><line x1="28.88888888888889" y1="0" x2="28.88888888888889" y2="178" fill="rgb(0, 0, 0)" stroke="rgb(153, 153, 153)" stroke-width="1.5px"></line></g></g><g><g><g><g><g><path stroke="rgb(204, 51, 17)" stroke-width="2px" d="M28.88888888888889,27.38461844508464L29.120802469135803,27.38461844508464L29.33666666666667,27.384618445084698L29.55493827160494,27.38461844508464L29.77240740740741,27.38461844508464L29.989876543209878,27.38461844508464L30.207345679012345,27.38461844508464L30.422407407407405,27.38461844508464L30.635061728395062,27.38461844508464L30.84932098765432,27.38461844508464L31.06358024691358,27.38461844508464L31.273024691358025,27.38461844508464L31.484876543209875,27.38461844508464L31.696728395061726,27.38461844508464L31.909382716049382,27.384618445084698L32.12283950617284,27.38461844508464L32.339506172839506,27.38461844508464L32.552962962962965,27.38461844508464L32.76641975308642,27.38461844508464L32.98148148148148,27.38461844508464L33.202160493827165,27.384618445084698L33.42444444444445,27.38461844508464L33.63870370370371,27.38461844508464L33.852160493827164,27.38461844508464L34.06401234567902,27.38461844508464L34.275864197530865,27.38461844508464L34.48851851851852,27.38461844508464L34.70277777777778,27.38461844508464L34.919444444444444,27.38461844508464L35.13370370370371,27.38461844508464L35.35037037037038,27.38461844508464L35.56462962962963,27.38461844508464L35.77648148148148,27.38461844508464L35.98913580246914,27.38461844508464L36.2041975308642,27.38461844508464L36.42648148148149,27.38461844508464L36.638333333333335,27.38461844508464L36.85740740740741,27.38461844508464L37.07246913580247,27.38461844508464L37.28993827160494,27.38461844508464L37.51703703703704,27.384618445084698L37.739320987654324,27.38461844508464L37.95518518518519,27.38461844508464L38.17024691358025,27.38461844508464L38.38611111111111,27.38461844508464L38.605185185185185,27.384618445084698L38.82586419753087,27.38461844508464L39.04172839506173,27.38461844508464L39.25598765432099,27.38461844508464L39.47104938271605,27.38461844508464L39.693333333333335,27.38461844508464L39.9083950617284,27.38461844508464L40.1362962962963,27.38461844508464L40.365,27.38461844508464L40.587283950617284,27.38461844508464L40.81117283950618,27.38461844508464L41.040679012345684,27.38461844508464L41.25895061728396,27.38461844508464L41.47641975308642,27.38461844508464L41.68907407407407,27.38461844508464L41.904135802469135,27.38461844508464L42.1191975308642,27.384618445084698L42.33345679012346,27.38461844508464L42.54851851851852,27.38461844508464L42.76438271604938,27.38461844508464L42.98987654320988,27.38461844508464L43.20333333333333,27.38461844508464L43.4191975308642,27.384618445084698L43.63345679012346,27.38461844508464L43.84691358024691,27.38461844508464L44.07,27.38461844508464L44.28666666666667,27.38461844508464L44.50814814814815,27.38461844508464L44.73203703703704,27.38461844508464L44.9470987654321,27.38461844508464L45.165370370370375,27.38461844508464L45.37882716049383,27.38461844508464L45.5946913580247,27.38461844508464L45.80814814814814,27.38461844508464L46.02320987654321,27.38461844508464L46.236666666666665,27.38461844508464L46.451728395061735,27.38461844508464L46.66438271604939,27.38461844508464L46.876234567901236,27.38461844508464L47.09049382716049,27.38461844508464L47.30395061728395,27.38461844508464L47.51901234567901,27.38461844508464L47.73407407407408,27.38461844508464L47.951543209876554,27.38461844508464L48.165,27.38461844508464L48.379259259259264,27.38461844508464L48.593518518518515,27.38461844508464L48.80938271604939,27.38461844508464L49.02283950617284,27.38461844508464L49.24271604938272,27.38461844508464L49.45777777777778,27.38461844508464L49.674444444444454,27.38461844508464L49.8879012345679,27.38461844508464L50.102160493827164,27.38461844508464L50.318024691358026,27.38461844508464L50.53308641975308,27.38461844508464L50.74654320987655,27.38461844508464L50.96240740740741,27.38461844508464L51.180679012345685,27.38461844508464L51.394135802469144,27.38461844508464L51.60999999999999,27.38461844508464L51.821851851851854,27.38461844508464L52.04012345679012,27.38461844508464L52.257592592592594,27.38461844508464L52.48067901234569,27.38461844508464L52.696543209876545,27.38461844508464L52.908395061728406,27.38461844508464L53.11944444444445,27.38461844508464L53.332901234567906,27.38461844508464L53.54956790123456,27.38461844508464L53.76222222222223,27.38461844508464L53.976481481481486,27.38461844508464L54.18913580246913,27.38461844508464L54.40580246913581,27.38461844508464L54.620864197530864,27.38461844508464L54.83672839506174,27.38461844508464L55.04858024691359,27.38461844508464L55.260432098765435,27.38461844508464L55.47469135802469,27.38461844508464L55.690555555555555,27.38461844508464L55.9024074074074,27.38461844508464L56.11586419753086,27.38461844508464L56.33092592592592,27.38461844508464L56.546790123456795,27.38461844508464L56.760246913580254,27.38461844508464L56.9729012345679,27.38461844508464L57.186358024691366,27.38461844508464L57.40061728395062,27.38461844508464L57.62370370370371,27.38461844508464L57.83876543209877,27.38461844508464L58.05462962962964,27.38461844508464L58.2696913580247,27.38461844508464L58.48956790123457,27.38461844508464L58.70382716049384,27.38461844508464L58.92530864197531,27.38461844508464L59.137962962962966,27.38461844508464L59.35302469135804,27.38461844508464L59.56648148148148,27.38461844508464L59.784753086419755,27.38461844508464L60.00864197530865,27.38461844508464L60.23012345679013,27.38461844508464L60.45401234567902,27.38461844508464L60.67308641975308,27.38461844508464L60.88654320987655,27.38461844508464L61.0991975308642,27.38461844508464L61.31666666666667,27.38461844508464L61.53493827160494,27.38461844508464L61.750802469135806,27.38461844508464L61.97469135802469,27.38461844508464L62.190555555555555,27.38461844508464L62.408827160493836,27.38461844508464L62.6246913580247,27.38461844508464L62.84216049382715,27.38461844508464L63.058024691358035,27.38461844508464L63.27870370370371,27.38461844508464L63.50098765432099,27.38461844508464L63.717654320987656,27.38461844508464L63.92950617283951,27.38461844508464L64.14296296296297,27.38461844508464L64.35802469135803,27.38461844508464L64.5795061728395,27.38461844508464L64.8025925925926,27.38461844508464L65.0280864197531,27.38461844508464L65.24475308641975,27.38461844508464L65.45901234567901,27.38461844508464L65.67487654320988,27.38461844508464L65.89074074074074,27.38461844508464L66.105,27.38461844508464L66.32006172839506,27.38461844508464L66.53672839506173,27.38461844508464L66.7517901234568,27.38461844508464L66.97888888888889,27.38461844508464L67.19154320987656,27.38461844508464L67.4058024691358,27.38461844508464L67.62086419753086,27.38461844508464L67.83913580246913,27.38461844508464L68.05981481481481,27.38461844508464L68.27567901234568,27.38461844508464L68.49475308641976,27.38461844508464L68.73308641975309,27.38461844508464L68.94654320987654,27.38461844508464L69.16240740740741,27.38461844508464L69.37907407407408,27.38461844508464L69.59975308641977,27.38461844508464L69.81641975308642,27.38461844508464L70.03067901234569,27.38461844508464L70.24654320987655,27.38461844508464L70.46722222222223,27.38461844508464L70.6903086419753,27.38461844508464L70.9125925925926,27.38461844508464L71.12685185185185,27.38461844508464L71.34432098765433,27.38461844508464L71.56098765432098,27.38461844508464L71.77925925925926,27.38461844508464L71.99672839506172,27.38461844508464L72.20777777777778,27.38461844508464L72.42283950617285,27.38461844508464L72.64030864197531,27.38461844508464L72.85456790123457,27.38461844508464L73.07203703703703,27.38461844508464L73.28950617283951,27.38461844508464L73.50456790123457,27.38461844508464L73.72203703703705,27.38461844508464L73.9379012345679,27.38461844508464L74.15858024691359,27.38461844508464L74.38487654320987,27.38461844508464L74.60796296296296,27.38461844508464L74.82141975308642,27.38461844508464L75.03888888888889,27.38461844508464L75.28203703703704,27.38461844508464L75.50512345679013,27.38461844508464L75.73944444444444,27.38461844508464L75.95851851851852,27.38461844508464L76.175987654321,27.38461844508464L76.39345679012347,27.38461844508464L76.61253086419754,27.38461844508464L76.83481481481482,27.38461844508464L77.0514814814815,27.38461844508464L77.26574074074075,27.38461844508464L77.48080246913581,27.38461844508464L77.69666666666669,27.38461844508464L77.91092592592594,27.38461844508464L78.1267901234568,27.38461844508464L78.34185185185186,27.38461844508464L78.55611111111111,27.38461844508464L78.77117283950618,27.38461844508464L78.98864197530864,27.38461844508464L79.20209876543211,27.38461844508464L79.41635802469136,27.38461844508464L79.6314197530864,27.38461844508464L79.84728395061728,27.38461844508464L80.06074074074074,27.38461844508464L80.275,27.38461844508464L80.48604938271605,27.38461844508464L80.70351851851852,27.38461844508464L80.91938271604938,27.38461844508464L81.13364197530863,27.38461844508464L81.34950617283951,27.38461844508464L81.56376543209878,27.38461844508464L81.78283950617283,27.38461844508464L81.9979012345679,27.38461844508464L82.21135802469136,27.38461844508464L82.42561728395061,27.38461844508464L82.63827160493827,27.38461844508464L82.85895061728395,27.38461844508464L83.07641975308644,27.38461844508464L83.29469135802469,27.38461844508464L83.50895061728396,27.38461844508464L83.72882716049384,27.38461844508464L83.9422839506173,27.38461844508464L84.16135802469137,27.38461844508464L84.37722222222222,27.38461844508464L84.59950617283951,27.38461844508464L84.82901234567902,27.38461844508464L85.05611111111112,27.38461844508464L85.2775925925926,27.38461844508464L85.48783950617283,27.38461844508464L85.7029012345679,27.38461844508464L85.91956790123456,27.38461844508464L86.13623456790124,27.38461844508464L86.3537037037037,27.38461844508464L86.5783950617284,27.38461844508464L86.79425925925925,27.38461844508464L87.01172839506172,27.38461844508464L87.2283950617284,27.38461844508464L87.44345679012346,27.38461844508464L87.66092592592592,27.38461844508464L87.88000000000001,27.38461844508464L88.09506172839507,27.38461844508464L88.31413580246914,27.38461844508464L88.54283950617284,27.38461844508464L88.76111111111112,27.38461844508464L88.9785802469136,27.38461844508464L89.19845679012347,27.38461844508464L89.41592592592593,27.38461844508464L89.63339506172841,27.38461844508464L89.84925925925927,27.38461844508464L90.07234567901236,27.38461844508464L90.28981481481482,27.38461844508464L90.50728395061728,27.38461844508464L90.72956790123456,27.38461844508464L90.95425925925927,27.38461844508464L91.17493827160496,27.38461844508464L91.39320987654321,27.38461844508464L91.62833333333334,27.38461844508464L91.85703703703705,27.38461844508464L92.07932098765431,27.38461844508464L92.30481481481483,27.38461844508464L92.54154320987655,27.38461844508464L92.755,27.38461844508464L92.96685185185186,27.38461844508464L93.18351851851851,27.38461844508464L93.39938271604939,27.38461844508464L93.61524691358024,27.38461844508464L93.83753086419753,76.67692465306476L94.05820987654322,106.25230837785283L94.27567901234568,123.99753861272566L94.49475308641976,134.64467675364935L94.71222222222224,141.03295963820358L94.93450617283952,144.86592936893612L95.16561728395062,147.16571120737564L95.39512345679013,148.54558031043933L95.61018518518519,149.37350177227756L95.83086419753087,149.87025464938048L96.04672839506173,150.16830637564226L96.25938271604939,150.34713741139933L96.47364197530864,150.45443603285355L96.69271604938272,150.5188152057261L96.90697530864199,150.55744270944962L97.12685185185187,150.58061921168374L97.34672839506173,150.5945251130242L97.5658024691358,150.60286865382847L97.78888888888889,150.60787477831104L98.01358024691358,150.6108784530006L98.24148148148147,150.6126806578143L98.47179012345678,150.61376198070255L98.69567901234569,150.6144107744355L98.92117283950617,150.61480005067526L99.14104938271605,150.6150336164191L99.35771604938273,150.6151737558654L99.58802469135802,150.61525783953323L99.80148148148149,150.6153082897339L100.01574074074075,150.6153385598543L100.23000000000002,150.61535672192653L100.44666666666667,150.6153676191699L100.67135802469136,150.6153741575159L100.90086419753086,150.6153780805235L101.11913580246915,150.61538043432805L101.33259259259259,150.6153818466108L101.55006172839506,150.61538269398045L101.76833333333335,150.61538320240223L101.98820987654321,150.6153835074553L102.2088888888889,150.61538369048714L102.42796296296297,150.61538380030623L102.639012345679,150.6153838661977L102.85407407407408,150.61538390573259L103.07796296296297,150.61538392945351L103.29302469135801,150.61538394368606L103.5145061728395,150.61538395222559L103.7408024691358,150.6153839573493L103.9695061728395,150.61538396042354L104.1917901234568,150.61538396226808L104.41246913580248,150.61538396337482L104.63716049382715,150.61538396403884L104.85944444444445,150.61538396443729L105.08253086419754,150.6153839646763L105.30882716049383,150.61538396481976L105.53512345679013,150.61538396490582L105.7517901234568,150.61538396495746L105.96524691358026,150.61538396498844L106.18111111111112,150.61538396500703L106.39376543209876,150.61538396501817L106.60962962962964,150.61538396502488L106.8238888888889,150.61538396502888L107.03975308641975,150.6153839650313L107.25401234567902,150.61538396503272L107.46907407407409,150.6153839650336L107.68654320987656,150.6153839650341L107.90722222222222,150.61538396503443L108.1287037037037,150.61538396503462L108.34617283950618,150.61538396503474L108.56043209876543,150.6153839650348L108.7754938271605,150.61538396503485L109.00820987654322,150.61538396503488L109.22407407407408,150.61538396503488L109.43913580246914,150.61538396503488L109.655,150.61538396503488L109.86925925925925,150.6153839650349L110.08512345679013,150.6153839650349L110.3025925925926,150.6153839650349L110.51925925925927,150.6153839650349L110.73271604938272,150.6153839650349L110.94938271604939,150.6153839650349L111.16364197530864,150.6153839650349L111.3770987654321,150.6153839650349L111.59777777777778,150.6153839650349L111.82166666666666,150.6153839650349L112.04395061728395,150.6153839650349L112.26703703703706,150.6153839650349L112.49253086419753,150.6153839650349L112.72444444444446,150.6153839650349L112.95876543209877,150.6153839650349L113.17302469135804,150.6153839650349L113.38808641975308,150.6153839650349L113.60074074074075,150.6153839650349L113.81500000000001,150.6153839650349L114.02845679012346,150.6153839650349L114.24191358024692,150.6153839650349L114.45456790123458,150.6153839650349L114.67043209876543,150.6153839650349L114.88388888888889,150.6153839650349L115.12382716049383,150.6153839650349L115.38302469135803,150.6153839650349L115.61734567901236,150.6153839650349L115.88216049382716,150.6153839650349L116.10765432098766,150.6153839650349L116.31870370370372,150.6153839650349L116.54740740740742,150.6153839650349L116.77932098765432,150.6153839650349L117.00401234567903,150.6153839650349L117.23111111111112,150.6153839650349L117.46703703703704,150.6153839650349L117.68851851851853,150.6153839650349L117.92925925925925,150.6153839650349L118.15876543209876,150.6153839650349L118.38506172839506,150.6153839650349L118.60574074074074,150.6153839650349L118.83524691358025,150.6153839650349L119.05592592592593,150.6153839650349L119.2701851851852,150.6153839650349L119.48444444444446,150.6153839650349L119.71475308641976,150.6153839650349L119.94586419753087,150.6153839650349L120.1777777777778,150.6153839650349L120.39845679012345,150.6153839650349L120.62796296296297,150.6153839650349L120.85666666666668,150.6153839650349L121.07975308641977,150.6153839650349L121.29320987654323,150.6153839650349L121.5138888888889,150.6153839650349L121.72734567901236,150.6153839650349L121.94882716049385,150.6153839650349L122.17271604938273,150.6153839650349L122.390987654321,150.6153839650349L122.60604938271607,150.6153839650349L122.81950617283951,150.6153839650349L123.05141975308642,150.6153839650349L123.30901234567901,150.6153839650349L123.53771604938271,150.6153839650349L123.76401234567903,150.6153839650349L123.99512345679013,150.6153839650349L124.2101851851852,150.6153839650349L124.43327160493828,150.6153839650349L124.65716049382718,150.6153839650349L124.87944444444446,150.6153839650349L125.10333333333335,150.6153839650349L125.33364197530865,150.6153839650349L125.56475308641977,150.6153839650349L125.78141975308642,150.6153839650349L125.99567901234569,150.6153839650349L126.21154320987657,150.6153839650349L126.42740740740742,150.6153839650349L126.6480864197531,150.6153839650349L126.86395061728396,150.6153839650349L127.08222222222223,150.6153839650349L127.29648148148149,150.6153839650349L127.51074074074076,150.6153839650349L127.72580246913581,150.6153839650349L127.94166666666668,150.6153839650349L128.1559259259259,150.6153839650349L128.3693827160494,150.6153839650349L128.59327160493828,150.6153839650349L128.81234567901237,150.6153839650349L129.03944444444446,150.6153839650349L129.2545061728395,150.6153839650349L129.4687654320988,150.6153839650349L129.68543209876543,150.6153839650349L129.90209876543213,150.6153839650349L130.117962962963,150.6153839650349L130.34907407407408,150.6153839650349L130.56253086419756,150.6153839650349L130.7848148148148,150.6153839650349L131.0022839506173,150.6153839650349L131.22697530864198,150.6153839650349L131.4564814814815,150.6153839650349L131.68919753086422,150.6153839650349L131.91308641975309,150.6153839650349L132.1401851851852,150.6153839650349L132.3953703703704,150.6153839650349L132.64413580246915,150.6153839650349L132.90092592592595,150.6153839650349L133.12641975308642,150.6153839650349L133.33907407407406,150.6153839650349L133.56296296296298,150.6153839650349L133.78444444444446,150.6153839650349L134.0011111111111,150.6153839650349L134.2266049382716,150.6153839650349L134.45290123456792,150.6153839650349L134.69685185185187,150.6153839650349L134.91351851851852,150.6153839650349L135.13901234567902,150.6153839650349L135.3612962962963,150.6153839650349L135.5771604938272,150.6153839650349L135.79302469135803,150.6153839650349L136.0096913580247,150.6153839650349L136.2263580246914,150.6153839650349L136.43820987654323,150.6153839650349L136.6596913580247,150.6153839650349L136.88197530864198,150.6153839650349L137.10586419753088,150.6153839650349L137.32574074074077,150.6153839650349L137.54641975308644,150.6153839650349L137.7670987654321,150.6153839650349L137.98216049382717,150.6153839650349L138.20043209876548,150.6153839650349L138.4154938271605,150.6153839650349L138.6305555555556,150.6153839650349L138.844012345679,150.6153839650349L139.0598765432099,150.6153839650349L139.27574074074076,150.6153839650349L139.50524691358027,150.6153839650349L139.72030864197532,150.6153839650349L139.9417901234568,150.6153839650349L140.15444444444447,150.6153839650349L140.37432098765433,150.6153839650349L140.5917901234568,150.6153839650349L140.8108641975309,150.6153839650349L141.02993827160495,150.6153839650349L141.25944444444445,150.6153839650349L141.4777160493827,150.6153839650349L141.6991975308642,150.6153839650349L141.9174691358025,150.6153839650349L142.31148148148148,150.6153839650349L142.67098765432098,150.6153839650349L142.89006172839507,150.6153839650349L143.10753086419754,150.6153839650349L143.33141975308644,150.6153839650349L143.55611111111114,150.6153839650349L143.7767901234568,150.6153839650349L144.00709876543212,150.6153839650349L144.22777777777782,150.6153839650349L144.45246913580246,150.6153839650349L144.67635802469135,150.6153839650349L144.89382716049383,150.6153839650349L145.1112962962963,150.6153839650349L145.32635802469136,150.6153839650349L145.54864197530867,150.6153839650349L145.76851851851853,150.6153839650349L145.99561728395062,150.6153839650349L146.21469135802468,150.6153839650349L146.432962962963,150.6153839650349L146.64722222222224,150.6153839650349L146.86067901234568,150.6153839650349L147.07814814814816,150.6153839650349L147.3124691358025,150.6153839650349L147.52672839506175,150.6153839650349L147.7441975308642,150.6153839650349L147.95925925925926,150.6153839650349L148.17432098765434,150.6153839650349L148.38697530864198,150.6153839650349L148.6204938271605,150.6153839650349L148.8483950617284,150.6153839650349L149.0706790123457,150.6153839650349L149.300987654321,150.6153839650349L149.52006172839506,150.6153839650349L149.74074074074076,150.6153839650349L149.95901234567904,150.6153839650349L150.17648148148152,150.6153839650349L150.39796296296296,150.6153839650349L150.62506172839505,150.6153839650349L150.84333333333333,150.6153839650349L151.06000000000003,150.6153839650349L151.2798765432099,150.6153839650349L151.5077777777778,150.6153839650349L151.72364197530865,150.6153839650349L151.94191358024693,150.6153839650349L152.16018518518518,150.6153839650349L152.37524691358024,150.6153839650349L152.5879012345679,150.6153839650349L152.80697530864197,150.6153839650349L153.02364197530866,150.6153839650349L153.24833333333333,150.6153839650349L153.47382716049384,150.6153839650349L153.6929012345679,150.6153839650349L153.9111728395062,150.6153839650349L154.12944444444446,150.6153839650349L154.34530864197532,150.6153839650349L154.5651851851852,150.6153839650349L154.77944444444444,150.6153839650349L154.99450617283952,150.6153839650349L155.21598765432103,150.6153839650349L155.4334567901235,150.6153839650349L155.65172839506175,150.6153839650349L155.87,150.6153839650349L156.0954938271605,150.6153839650349L156.3137654320988,150.6153839650349L156.53123456790124,150.6153839650349L156.76796296296297,150.6153839650349L156.98543209876544,150.6153839650349L157.1980864197531,150.6153839650349L157.41314814814817,150.6153839650349L157.62901234567903,150.6153839650349L157.8448765432099,150.6153839650349L158.05913580246914,150.6153839650349L158.27740740740742,150.6153839650349L158.5029012345679,150.6153839650349L158.725987654321,150.6153839650349L158.9482716049383,150.6153839650349L159.16734567901236,150.6153839650349L159.3856172839506,150.6153839650349L159.6014814814815,150.6153839650349L159.81574074074072,150.6153839650349L160.04444444444445,150.6153839650349L160.26191358024695,150.6153839650349L160.4825925925926,155.54461500824144L160.69364197530865,158.50215363416535L160.91030864197532,160.2766768097197L161.1237654320988,161.3413907150523L161.34925925925924,161.98021905825186L161.56753086419755,162.36351606417162L161.7898148148148,162.59349426772346L162.00888888888892,162.73148118985455L162.2263580246914,162.8142733431332L162.44543209876545,162.86394863510043L162.6645061728395,162.89375381028074L162.8908024691358,162.91163691538893L163.1074691358025,162.92236677845383L163.32574074074074,162.9288046962928L163.54,162.93266744699616L163.7582716049383,162.93498509741818L163.97253086419752,162.9363756876714L164.18438271604938,162.93721004182333L164.39864197530866,162.9377106543145L164.61290123456791,162.9380110218092L164.8263580246914,162.938191242306L165.04061728395064,162.93829937460407L165.2548765432099,162.93836425398294L165.46913580246917,162.93840318161025L165.6866049382716,162.93842653818663L165.89845679012348,162.93844055213248L166.11351851851853,162.93844896049995L166.32858024691362,162.93845400552047L166.55246913580248,162.93845703253277L166.76753086419754,162.93845884874014L166.9817901234568,162.93845993846458L167.19604938271604,162.93846059229924L167.41271604938274,162.93846098460003L167.63018518518518,162.9384612199805L167.84444444444443,162.9384613612088L168.06030864197533,162.93846144594576L168.27376543209877,162.93846149678794L168.48802469135802,162.93846152729324L168.7038888888889,162.93846154559645L168.92777777777778,162.93846155657835L169.14604938271606,162.9384615631675L169.36913580246915,162.93846156712098L169.589012345679,162.9384615694931L169.8048765432099,162.93846157091633L170.01993827160493,162.9384615717703L170.2341975308642,162.93846157228265L170.45728395061732,162.93846157259009L170.67314814814816,162.93846157277454L170.88981481481483,162.93846157288522L171.1072839506173,162.9384615729516L171.32475308641978,162.93846157299146L171.55024691358025,162.93846157301536L171.77092592592592,162.9384615730297L171.9883950617284,162.9384615730383L172.2082716049383,162.93846157304347L172.42493827160496,162.93846157304657L172.64641975308643,162.93846157304844L172.86388888888888,162.93846157304955L173.0917901234568,162.9384615730502L173.31567901234567,162.9384615730506L173.53635802469137,162.93846157305086L173.75222222222223,162.938461573051L173.96567901234567,162.9384615730511L174.18555555555557,162.93846157305114L174.40382716049385,162.93846157305117L174.62450617283952,162.9384615730512L174.84197530864202,162.9384615730512L175.06024691358027,162.9384615730512L175.28012345679014,162.9384615730512L175.50160493827164,162.93846157305123L175.7222839506173,162.93846157305123L175.93654320987656,162.93846157305123L176.15320987654323,162.93846157305123L176.3682716049383,162.93846157305123L176.6033950617284,162.93846157305123L176.82006172839507,162.93846157305123L177.03512345679016,162.93846157305123L177.2517901234568,162.93846157305123L177.4756790123457,162.93846157305123L177.6995679012346,162.93846157305123L177.92024691358026,162.93846157305123L178.13851851851854,162.93846157305123L178.3543827160494,162.93846157305123L178.56864197530868,162.93846157305123L178.79012345679013,162.93846157305123L179.0051851851852,162.93846157305123L179.22024691358027,162.93846157305123L179.43611111111113,162.93846157305123L179.65438271604938,162.93846157305123L179.87104938271605,162.93846157305123L180.08691358024691,162.93846157305123L180.30117283950617,162.93846157305123L180.51944444444447,162.93846157305123L180.7633950617284,162.93846157305123L180.98567901234568,162.93846157305123L181.19993827160496,162.93846157305123L181.41901234567902,162.93846157305123L181.63166666666666,162.93846157305123L181.84913580246914,162.93846157305123L182.0666049382716,162.93846157305123L182.28487654320986,162.93846157305123L182.50395061728398,162.93846157305123L182.7198148148148,162.93846157305123L182.93567901234567,162.93846157305123L183.15154320987656,162.93846157305123L183.37222222222226,162.93846157305123L183.59049382716051,162.93846157305123L183.811975308642,162.93846157305123L184.0326543209877,162.93846157305123L184.25413580246916,162.93846157305123L184.47240740740742,162.93846157305123L184.68586419753086,162.93846157305123L184.90172839506172,162.93846157305123L185.1151851851852,162.93846157305123L185.32703703703703,162.93846157305123L185.55012345679015,162.93846157305123L185.76598765432098,162.93846157305123L185.98185185185187,162.93846157305123L186.19771604938273,162.93846157305123L186.42641975308646,162.93846157305123L186.64469135802472,162.93846157305123L186.85895061728397,162.93846157305123L187.0708024691358,162.93846157305123L187.2882716049383,162.93846157305123L187.50574074074075,162.93846157305123L187.7216049382716,162.93846157305123L187.93746913580247,162.93846157305123L188.1541358024691,162.93846157305123L188.3908641975309,162.93846157305123L188.621975308642,162.93846157305123L188.87475308641976,162.93846157305123L189.22864197530865,162.93846157305123L189.4485185185185,162.93846157305123L189.6627777777778,162.93846157305123L189.88586419753085,162.93846157305123L190.10333333333335,162.93846157305123L190.32320987654322,162.93846157305123L190.5422839506173,162.93846157305123L190.75814814814817,162.93846157305123L190.97320987654325,162.93846157305123L191.1874691358025,162.93846157305123L191.40574074074075,162.93846157305123L191.62,162.93846157305123L191.83987654320987,162.93846157305123L192.05574074074076,162.93846157305123L192.2691975308642,162.93846157305123L192.48746913580246,162.93846157305123L192.70333333333335,162.93846157305123L192.92802469135802,162.93846157305123L193.14709876543208,162.93846157305123L193.36456790123458,162.93846157305123L193.59086419753086,162.93846157305123L193.80672839506175,162.93846157305123L194.020987654321,162.93846157305123L194.23685185185184,162.93846157305123L194.4511111111111,162.93846157305123L194.66456790123456,162.93846157305123L194.8788271604938,162.93846157305123L195.09469135802468,162.93846157305123L195.31456790123454,162.93846157305123L195.528024691358,162.93846157305123L195.74469135802468,162.93846157305123L195.95814814814815,162.93846157305123L196.18203703703702,162.93846157305123L196.3970987654321,162.93846157305123L196.61055555555555,162.93846157305123L196.8208024691358,162.93846157305123L197.03746913580247,162.93846157305123L197.25092592592594,162.93846157305123L197.48043209876542,162.93846157305123L197.70512345679015,162.93846157305123L197.9282098765432,162.93846157305123L198.14728395061726,162.93846157305123L198.36234567901235,162.93846157305123L198.58543209876547,162.93846157305123L198.80049382716052,162.93846157305123L199.01555555555552,162.93846157305123L199.2306172839506,162.93846157305123L199.4585185185185,162.93846157305123L199.6783950617284,162.93846157305123L199.89345679012348,162.93846157305123L200.10851851851854,162.93846157305123L200.32037037037037,162.93846157305123L200.53623456790126,162.93846157305123L200.75129629629632,162.93846157305123L200.97117283950618,162.93846157305123L201.18543209876546,162.93846157305123L201.40129629629632,162.93846157305123L201.61716049382716,162.93846157305123L201.8306172839506,162.93846157305123L202.04487654320988,162.93846157305123L202.25993827160494,162.93846157305123L202.475,162.93846157305123L202.68925925925927,162.93846157305123L202.90351851851852,162.93846157305123L203.11697530864197,162.93846157305123L203.33203703703703,162.93846157305123L203.55512345679014,162.93846157305123L203.77018518518517,162.93846157305123L203.98604938271603,162.93846157305123L204.2059259259259,162.93846157305123L204.42018518518518,162.93846157305123L204.63364197530862,162.93846157305123L204.86314814814816,162.93846157305123L205.08864197530863,162.93846157305123L205.3020987654321,162.93846157305123L205.51716049382716,162.93846157305123L205.74185185185186,162.93846157305123L205.95611111111108,162.93846157305123L206.171975308642,162.93846157305123L206.38543209876542,162.93846157305123L206.6037037037037,162.93846157305123L206.81956790123456,162.93846157305123L207.03623456790126,162.93846157305123L207.2504938271605,162.93846157305123L207.46635802469135,162.93846157305123L207.68141975308643,162.93846157305123L207.8988888888889,162.93846157305123L208.11314814814816,162.93846157305123L208.32901234567905,162.93846157305123L208.5432716049383,162.93846157305123L208.75833333333333,162.93846157305123L208.9766049382716,162.93846157305123L209.1916666666667,162.93846157305123L209.41635802469136,162.93846157305123L209.6314197530864,162.93846157305123L209.84728395061728,162.93846157305123L210.05913580246914,162.93846157305123L210.27179012345678,162.93846157305123L210.48524691358023,162.93846157305123L210.6995061728395,162.93846157305123L210.91537037037037,162.93846157305123L211.12722222222223,162.93846157305123L211.3438888888889,162.93846157305123L211.55734567901234,162.93846157305123L211.77320987654318,162.93846157305123L211.9914814814815,162.93846157305123L212.20975308641974,162.93846157305123L212.42722222222224,162.93846157305123L212.6454938271605,162.93846157305123L212.86055555555558,162.93846157305123L213.07962962962964,162.93846157305123L213.2962962962963,162.93846157305123L213.51456790123456,162.93846157305123L213.74006172839506,162.93846157305123L213.95592592592592,162.93846157305123L214.1717901234568,162.93846157305123L214.38765432098762,162.93846157305123L214.6067283950617,162.93846157305123L214.82018518518518,162.93846157305123L215.03444444444443,162.93846157305123L215.25993827160494,162.93846157305123L215.4741975308642,162.93846157305123L215.69487654320986,162.93846157305123L215.9107407407407,162.93846157305123L216.133024691358,162.93846157305123L216.35129629629625,162.93846157305123L216.56796296296295,162.93846157305123L216.79024691358026,162.93846157305123L217.01253086419752,162.93846157305123L217.2324074074074,162.93846157305123L217.44907407407408,162.93846157305123L217.67456790123458,162.93846157305123L217.90086419753084,162.93846157305123L218.12154320987653,162.93846157305123L218.3406172839506,162.93846157305123L218.5588888888889,162.93846157305123L218.7787654320988,162.93846157305123L218.99302469135804,162.93846157305123L219.20969135802468,162.93846157305123L219.4375925925926,162.93846157305123L219.65506172839508,162.93846157305123L219.86932098765433,162.93846157305123L220.08358024691356,162.93846157305123L220.30185185185186,162.93846157305123L220.52333333333334,162.93846157305123L220.73839506172837,162.93846157305123L220.96148148148148,162.93846157305123L221.17814814814815,162.93846157305123L221.3972222222222,162.93846157305123L221.61388888888885,162.93846157305123L221.849012345679,162.93846157305123L222.0745061728395,162.93846157305123L222.29277777777776,162.93846157305123L222.50944444444443,162.93846157305123L222.7301234567901,162.93846157305123L222.94919753086418,162.93846157305123L223.16506172839507,162.93846157305123L223.3889506172839,162.93846157305123L223.6056172839506,162.93846157305123L223.8327160493827,162.93846157305123L224.063024691358,162.93846157305123L224.29975308641977,162.93846157305123L224.51722222222222,162.93846157305123L224.73790123456791,162.93846157305123L224.95697530864197,162.93846157305123L225.17524691358022,162.93846157305123L225.39030864197528,162.93846157305123L225.60296296296298,162.93846157305123L225.82364197530865,162.93846157305123L226.04351851851854,163.431384637522L226.26018518518518,163.7271384762045L226.47685185185185,163.90459077941398L226.6967283950617,164.01106216133965L226.91820987654322,164.07494499049508L227.15012345679014,164.11327468798834L227.3691975308642,164.13627250648426L227.60351851851854,164.15007119758184L227.8225925925926,164.1583504122404L228.04327160493827,164.1633179410355L228.26154320987655,164.16629845831258L228.4806172839506,164.16808676867885L228.70049382716047,164.16915975489857L228.93802469135804,164.16980354663042L229.1659259259259,164.17018982166954L229.389012345679,164.170421586693L229.6096913580247,164.17056064570707L229.82876543209875,164.17064408111554L230.0478395061728,164.1706941423606L230.27012345679012,164.17072417910765L230.4916049382716,164.17074220115586L230.72030864197527,164.1707530143848L230.94179012345677,164.17075950232217L231.16086419753083,164.17076339508458L231.38154320987653,164.17076573074203L231.6022222222222,164.1707671321365L231.82129629629625,164.17076797297318L232.0829012345679,164.17076847747518L232.3172222222222,164.1707687801764L232.54432098765432,164.1707689617971L232.77382716049382,164.17076907076955L233.00574074074072,164.170769136153L233.2296296296296,164.1707691753831L233.4519135802469,164.17076919892114L233.67018518518518,164.17076921304397L233.91172839506174,164.17076922151765L234.1308024691358,164.17076922660186L234.34666666666666,164.1707692296524L234.56092592592594,164.17076923148272L234.78962962962962,164.1707692325809L235.02395061728393,164.17076923323984L235.25506172839502,164.17076923363518L235.48055555555555,164.1707692338724L235.6964197530864,164.1707692340147L235.91067901234567,164.1707692341001L236.12493827160492,164.17076923415135L236.3432098765432,164.17076923418207L236.5662962962963,164.17076923420052L236.799012345679,164.1707692342116L237.05901234567904,164.17076923421823L237.33666666666664,164.17076923422223L237.55734567901234,164.17076923422462L237.78685185185188,164.17076923422604L238.01154320987652,164.1707692342269L238.23382716049383,164.17076923422744L238.45771604938273,164.17076923422772L238.68240740740737,164.17076923422792L238.90790123456787,164.17076923422803L239.1333950617284,164.1707692342281L239.35407407407408,164.17076923422815L239.57154320987652,164.17076923422817L239.7906172839506,164.17076923422817L240.0088888888889,164.17076923422817L240.2343827160494,164.1707692342282L240.44864197530865,164.1707692342282L240.6669135802469,164.1707692342282L240.8827777777778,164.1707692342282L241.10104938271604,164.1707692342282L241.3153086419753,164.1707692342282L241.531975308642,164.1707692342282L241.74864197530863,164.1707692342282L241.97012345679013,164.1707692342282L242.185987654321,164.1707692342282L242.40987654320986,164.1707692342282L242.63055555555556,164.1707692342282L242.8448148148148,164.1707692342282L243.06308641975306,164.1707692342282L243.27814814814812,164.1707692342282L243.50925925925927,164.1707692342282L243.7251234567901,164.1707692342282L243.94339506172838,164.1707692342282L244.15765432098766,164.1707692342282L244.3735185185185,164.1707692342282L244.58858024691355,164.1707692342282L244.80604938271608,164.1707692342282L245.02432098765433,164.1707692342282L245.2425925925926,164.1707692342282L245.45845679012345,164.1707692342282L245.6735185185185,164.1707692342282L245.899012345679,164.1707692342282L246.1220987654321,164.1707692342282L246.34919753086422,164.1707692342282L246.5746913580247,164.1707692342282L246.79055555555553,164.1707692342282L247.01845679012345,164.1707692342282L247.23993827160493,164.1707692342282L247.46302469135804,164.1707692342282L247.67808641975307,164.1707692342282L247.89555555555555,164.1707692342282L248.1122222222222,164.1707692342282L248.3361111111111,164.1707692342282" style="fill: none;" fill="none"></path></g></g></g></g><g opacity="0.2"><g><g><g><path stroke="rgb(204, 51, 17)" stroke-width="2px" d="M28.88888888888889,27.38461844508464L29.120802469135803,27.38461844508464L29.33666666666667,27.38461844508464L29.55493827160494,27.38461844508464L29.77240740740741,27.38461844508464L29.989876543209878,27.38461844508464L30.207345679012345,27.38461844508464L30.422407407407405,27.38461844508464L30.635061728395062,27.38461844508464L30.84932098765432,27.38461844508464L31.06358024691358,27.38461844508464L31.273024691358025,27.38461844508464L31.484876543209875,27.38461844508464L31.696728395061726,27.38461844508464L31.909382716049382,27.38461844508464L32.12283950617284,27.38461844508464L32.339506172839506,27.38461844508464L32.552962962962965,27.38461844508464L32.76641975308642,27.38461844508464L32.98148148148148,27.38461844508464L33.202160493827165,27.38461844508464L33.42444444444445,27.38461844508464L33.63870370370371,27.38461844508464L33.852160493827164,27.38461844508464L34.06401234567902,27.38461844508464L34.275864197530865,27.38461844508464L34.48851851851852,27.38461844508464L34.70277777777778,27.38461844508464L34.919444444444444,27.38461844508464L35.13370370370371,27.38461844508464L35.35037037037038,27.38461844508464L35.56462962962963,27.38461844508464L35.77648148148148,27.38461844508464L35.98913580246914,27.38461844508464L36.2041975308642,27.38461844508464L36.42648148148149,27.38461844508464L36.638333333333335,27.38461844508464L36.85740740740741,27.38461844508464L37.07246913580247,27.38461844508464L37.28993827160494,27.38461844508464L37.51703703703704,27.38461844508464L37.739320987654324,27.38461844508464L37.95518518518519,27.38461844508464L38.17024691358025,27.38461844508464L38.38611111111111,27.38461844508464L38.605185185185185,27.38461844508464L38.82586419753087,27.38461844508464L39.04172839506173,27.38461844508464L39.25598765432099,27.38461844508464L39.47104938271605,27.38461844508464L39.693333333333335,27.38461844508464L39.9083950617284,27.38461844508464L40.1362962962963,27.38461844508464L40.365,27.38461844508464L40.587283950617284,27.38461844508464L40.81117283950618,27.38461844508464L41.040679012345684,27.38461844508464L41.25895061728396,27.38461844508464L41.47641975308642,27.38461844508464L41.68907407407407,27.38461844508464L41.904135802469135,27.38461844508464L42.1191975308642,27.38461844508464L42.33345679012346,27.38461844508464L42.54851851851852,27.38461844508464L42.76438271604938,27.38461844508464L42.98987654320988,27.38461844508464L43.20333333333333,27.38461844508464L43.4191975308642,27.38461844508464L43.63345679012346,27.38461844508464L43.84691358024691,27.38461844508464L44.07,27.38461844508464L44.28666666666667,27.38461844508464L44.50814814814815,27.38461844508464L44.73203703703704,27.38461844508464L44.9470987654321,27.38461844508464L45.165370370370375,27.38461844508464L45.37882716049383,27.38461844508464L45.5946913580247,27.38461844508464L45.80814814814814,27.38461844508464L46.02320987654321,27.38461844508464L46.236666666666665,27.38461844508464L46.451728395061735,27.38461844508464L46.66438271604939,27.38461844508464L46.876234567901236,27.38461844508464L47.09049382716049,27.38461844508464L47.30395061728395,27.38461844508464L47.51901234567901,27.38461844508464L47.73407407407408,27.38461844508464L47.951543209876554,27.38461844508464L48.165,27.38461844508464L48.379259259259264,27.38461844508464L48.593518518518515,27.38461844508464L48.80938271604939,27.38461844508464L49.02283950617284,27.38461844508464L49.24271604938272,27.38461844508464L49.45777777777778,27.38461844508464L49.674444444444454,27.38461844508464L49.8879012345679,27.38461844508464L50.102160493827164,27.38461844508464L50.318024691358026,27.38461844508464L50.53308641975308,27.38461844508464L50.74654320987655,27.38461844508464L50.96240740740741,27.38461844508464L51.180679012345685,27.38461844508464L51.394135802469144,27.38461844508464L51.60999999999999,27.38461844508464L51.821851851851854,27.38461844508464L52.04012345679012,27.38461844508464L52.257592592592594,27.38461844508464L52.48067901234569,27.38461844508464L52.696543209876545,27.38461844508464L52.908395061728406,27.38461844508464L53.11944444444445,27.38461844508464L53.332901234567906,27.38461844508464L53.54956790123456,27.38461844508464L53.76222222222223,27.38461844508464L53.976481481481486,27.38461844508464L54.18913580246913,27.38461844508464L54.40580246913581,27.38461844508464L54.620864197530864,27.38461844508464L54.83672839506174,27.38461844508464L55.04858024691359,27.38461844508464L55.260432098765435,27.38461844508464L55.47469135802469,27.38461844508464L55.690555555555555,27.38461844508464L55.9024074074074,27.38461844508464L56.11586419753086,27.38461844508464L56.33092592592592,27.38461844508464L56.546790123456795,27.38461844508464L56.760246913580254,27.38461844508464L56.9729012345679,27.38461844508464L57.186358024691366,27.38461844508464L57.40061728395062,27.38461844508464L57.62370370370371,27.38461844508464L57.83876543209877,27.38461844508464L58.05462962962964,27.38461844508464L58.2696913580247,27.38461844508464L58.48956790123457,27.38461844508464L58.70382716049384,27.38461844508464L58.92530864197531,27.38461844508464L59.137962962962966,27.38461844508464L59.35302469135804,27.38461844508464L59.56648148148148,27.38461844508464L59.784753086419755,27.38461844508464L60.00864197530865,27.38461844508464L60.23012345679013,27.38461844508464L60.45401234567902,27.38461844508464L60.67308641975308,27.38461844508464L60.88654320987655,27.38461844508464L61.0991975308642,27.38461844508464L61.31666666666667,27.38461844508464L61.53493827160494,27.38461844508464L61.750802469135806,27.38461844508464L61.97469135802469,27.38461844508464L62.190555555555555,27.38461844508464L62.408827160493836,27.38461844508464L62.6246913580247,27.38461844508464L62.84216049382715,27.38461844508464L63.058024691358035,27.38461844508464L63.27870370370371,27.38461844508464L63.50098765432099,27.38461844508464L63.717654320987656,27.38461844508464L63.92950617283951,27.38461844508464L64.14296296296297,27.38461844508464L64.35802469135803,27.38461844508464L64.5795061728395,27.38461844508464L64.8025925925926,27.38461844508464L65.0280864197531,27.38461844508464L65.24475308641975,27.38461844508464L65.45901234567901,27.38461844508464L65.67487654320988,27.38461844508464L65.89074074074074,27.38461844508464L66.105,27.38461844508464L66.32006172839506,27.38461844508464L66.53672839506173,27.38461844508464L66.7517901234568,27.38461844508464L66.97888888888889,27.38461844508464L67.19154320987656,27.38461844508464L67.4058024691358,27.38461844508464L67.62086419753086,27.38461844508464L67.83913580246913,27.38461844508464L68.05981481481481,27.38461844508464L68.27567901234568,27.38461844508464L68.49475308641976,27.38461844508464L68.73308641975309,27.38461844508464L68.94654320987654,27.38461844508464L69.16240740740741,27.38461844508464L69.37907407407408,27.38461844508464L69.59975308641977,27.38461844508464L69.81641975308642,27.38461844508464L70.03067901234569,27.38461844508464L70.24654320987655,27.38461844508464L70.46722222222223,27.38461844508464L70.6903086419753,27.38461844508464L70.9125925925926,27.38461844508464L71.12685185185185,27.38461844508464L71.34432098765433,27.38461844508464L71.56098765432098,27.38461844508464L71.77925925925926,27.38461844508464L71.99672839506172,27.38461844508464L72.20777777777778,27.38461844508464L72.42283950617285,27.38461844508464L72.64030864197531,27.38461844508464L72.85456790123457,27.38461844508464L73.07203703703703,27.38461844508464L73.28950617283951,27.38461844508464L73.50456790123457,27.38461844508464L73.72203703703705,27.38461844508464L73.9379012345679,27.38461844508464L74.15858024691359,27.38461844508464L74.38487654320987,27.38461844508464L74.60796296296296,27.38461844508464L74.82141975308642,27.38461844508464L75.03888888888889,27.38461844508464L75.28203703703704,27.38461844508464L75.50512345679013,27.38461844508464L75.73944444444444,27.38461844508464L75.95851851851852,27.38461844508464L76.175987654321,27.38461844508464L76.39345679012347,27.38461844508464L76.61253086419754,27.38461844508464L76.83481481481482,27.38461844508464L77.0514814814815,27.38461844508464L77.26574074074075,27.38461844508464L77.48080246913581,27.38461844508464L77.69666666666669,27.38461844508464L77.91092592592594,27.38461844508464L78.1267901234568,27.38461844508464L78.34185185185186,27.38461844508464L78.55611111111111,27.38461844508464L78.77117283950618,27.38461844508464L78.98864197530864,27.38461844508464L79.20209876543211,27.38461844508464L79.41635802469136,27.38461844508464L79.6314197530864,27.38461844508464L79.84728395061728,27.38461844508464L80.06074074074074,27.38461844508464L80.275,27.38461844508464L80.48604938271605,27.38461844508464L80.70351851851852,27.38461844508464L80.91938271604938,27.38461844508464L81.13364197530863,27.38461844508464L81.34950617283951,27.38461844508464L81.56376543209878,27.38461844508464L81.78283950617283,27.38461844508464L81.9979012345679,27.38461844508464L82.21135802469136,27.38461844508464L82.42561728395061,27.38461844508464L82.63827160493827,27.38461844508464L82.85895061728395,27.38461844508464L83.07641975308644,27.38461844508464L83.29469135802469,27.38461844508464L83.50895061728396,27.38461844508464L83.72882716049384,27.38461844508464L83.9422839506173,27.38461844508464L84.16135802469137,27.38461844508464L84.37722222222222,27.38461844508464L84.59950617283951,27.38461844508464L84.82901234567902,27.38461844508464L85.05611111111112,27.38461844508464L85.2775925925926,27.38461844508464L85.48783950617283,27.38461844508464L85.7029012345679,27.38461844508464L85.91956790123456,27.38461844508464L86.13623456790124,27.38461844508464L86.3537037037037,27.38461844508464L86.5783950617284,27.38461844508464L86.79425925925925,27.38461844508464L87.01172839506172,27.38461844508464L87.2283950617284,27.38461844508464L87.44345679012346,27.38461844508464L87.66092592592592,27.38461844508464L87.88000000000001,27.38461844508464L88.09506172839507,27.38461844508464L88.31413580246914,27.38461844508464L88.54283950617284,27.38461844508464L88.76111111111112,27.38461844508464L88.9785802469136,27.38461844508464L89.19845679012347,27.38461844508464L89.41592592592593,27.38461844508464L89.63339506172841,27.38461844508464L89.84925925925927,27.38461844508464L90.07234567901236,27.38461844508464L90.28981481481482,27.38461844508464L90.50728395061728,27.38461844508464L90.72956790123456,27.38461844508464L90.95425925925927,27.38461844508464L91.17493827160496,27.38461844508464L91.39320987654321,27.38461844508464L91.62833333333334,27.38461844508464L91.85703703703705,27.38461844508464L92.07932098765431,27.38461844508464L92.30481481481483,27.38461844508464L92.54154320987655,27.38461844508464L92.755,27.38461844508464L92.96685185185186,27.38461844508464L93.18351851851851,27.38461844508464L93.39938271604939,27.38461844508464L93.61524691358024,27.38461844508464L93.83753086419753,150.6153839650349L94.05820987654322,150.6153839650349L94.27567901234568,150.6153839650349L94.49475308641976,150.6153839650349L94.71222222222224,150.6153839650349L94.93450617283952,150.6153839650349L95.16561728395062,150.6153839650349L95.39512345679013,150.6153839650349L95.61018518518519,150.6153839650349L95.83086419753087,150.6153839650349L96.04672839506173,150.6153839650349L96.25938271604939,150.6153839650349L96.47364197530864,150.6153839650349L96.69271604938272,150.6153839650349L96.90697530864199,150.6153839650349L97.12685185185187,150.6153839650349L97.34672839506173,150.6153839650349L97.5658024691358,150.6153839650349L97.78888888888889,150.6153839650349L98.01358024691358,150.6153839650349L98.24148148148147,150.6153839650349L98.47179012345678,150.6153839650349L98.69567901234569,150.6153839650349L98.92117283950617,150.6153839650349L99.14104938271605,150.6153839650349L99.35771604938273,150.6153839650349L99.58802469135802,150.6153839650349L99.80148148148149,150.6153839650349L100.01574074074075,150.6153839650349L100.23000000000002,150.6153839650349L100.44666666666667,150.6153839650349L100.67135802469136,150.6153839650349L100.90086419753086,150.6153839650349L101.11913580246915,150.6153839650349L101.33259259259259,150.6153839650349L101.55006172839506,150.6153839650349L101.76833333333335,150.6153839650349L101.98820987654321,150.6153839650349L102.2088888888889,150.6153839650349L102.42796296296297,150.6153839650349L102.639012345679,150.6153839650349L102.85407407407408,150.6153839650349L103.07796296296297,150.6153839650349L103.29302469135801,150.6153839650349L103.5145061728395,150.6153839650349L103.7408024691358,150.6153839650349L103.9695061728395,150.6153839650349L104.1917901234568,150.6153839650349L104.41246913580248,150.6153839650349L104.63716049382715,150.6153839650349L104.85944444444445,150.6153839650349L105.08253086419754,150.6153839650349L105.30882716049383,150.6153839650349L105.53512345679013,150.6153839650349L105.7517901234568,150.6153839650349L105.96524691358026,150.6153839650349L106.18111111111112,150.6153839650349L106.39376543209876,150.6153839650349L106.60962962962964,150.6153839650349L106.8238888888889,150.6153839650349L107.03975308641975,150.6153839650349L107.25401234567902,150.6153839650349L107.46907407407409,150.6153839650349L107.68654320987656,150.6153839650349L107.90722222222222,150.6153839650349L108.1287037037037,150.6153839650349L108.34617283950618,150.6153839650349L108.56043209876543,150.6153839650349L108.7754938271605,150.6153839650349L109.00820987654322,150.6153839650349L109.22407407407408,150.6153839650349L109.43913580246914,150.6153839650349L109.655,150.6153839650349L109.86925925925925,150.6153839650349L110.08512345679013,150.6153839650349L110.3025925925926,150.6153839650349L110.51925925925927,150.6153839650349L110.73271604938272,150.6153839650349L110.94938271604939,150.6153839650349L111.16364197530864,150.6153839650349L111.3770987654321,150.6153839650349L111.59777777777778,150.6153839650349L111.82166666666666,150.6153839650349L112.04395061728395,150.6153839650349L112.26703703703706,150.6153839650349L112.49253086419753,150.6153839650349L112.72444444444446,150.6153839650349L112.95876543209877,150.6153839650349L113.17302469135804,150.6153839650349L113.38808641975308,150.6153839650349L113.60074074074075,150.6153839650349L113.81500000000001,150.6153839650349L114.02845679012346,150.6153839650349L114.24191358024692,150.6153839650349L114.45456790123458,150.6153839650349L114.67043209876543,150.6153839650349L114.88388888888889,150.6153839650349L115.12382716049383,150.6153839650349L115.38302469135803,150.6153839650349L115.61734567901236,150.6153839650349L115.88216049382716,150.6153839650349L116.10765432098766,150.6153839650349L116.31870370370372,150.6153839650349L116.54740740740742,150.6153839650349L116.77932098765432,150.6153839650349L117.00401234567903,150.6153839650349L117.23111111111112,150.6153839650349L117.46703703703704,150.6153839650349L117.68851851851853,150.6153839650349L117.92925925925925,150.6153839650349L118.15876543209876,150.6153839650349L118.38506172839506,150.6153839650349L118.60574074074074,150.6153839650349L118.83524691358025,150.6153839650349L119.05592592592593,150.6153839650349L119.2701851851852,150.6153839650349L119.48444444444446,150.6153839650349L119.71475308641976,150.6153839650349L119.94586419753087,150.6153839650349L120.1777777777778,150.6153839650349L120.39845679012345,150.6153839650349L120.62796296296297,150.6153839650349L120.85666666666668,150.6153839650349L121.07975308641977,150.6153839650349L121.29320987654323,150.6153839650349L121.5138888888889,150.6153839650349L121.72734567901236,150.6153839650349L121.94882716049385,150.6153839650349L122.17271604938273,150.6153839650349L122.390987654321,150.6153839650349L122.60604938271607,150.6153839650349L122.81950617283951,150.6153839650349L123.05141975308642,150.6153839650349L123.30901234567901,150.6153839650349L123.53771604938271,150.6153839650349L123.76401234567903,150.6153839650349L123.99512345679013,150.6153839650349L124.2101851851852,150.6153839650349L124.43327160493828,150.6153839650349L124.65716049382718,150.6153839650349L124.87944444444446,150.6153839650349L125.10333333333335,150.6153839650349L125.33364197530865,150.6153839650349L125.56475308641977,150.6153839650349L125.78141975308642,150.6153839650349L125.99567901234569,150.6153839650349L126.21154320987657,150.6153839650349L126.42740740740742,150.6153839650349L126.6480864197531,150.6153839650349L126.86395061728396,150.6153839650349L127.08222222222223,150.6153839650349L127.29648148148149,150.6153839650349L127.51074074074076,150.6153839650349L127.72580246913581,150.6153839650349L127.94166666666668,150.6153839650349L128.1559259259259,150.6153839650349L128.3693827160494,150.6153839650349L128.59327160493828,150.6153839650349L128.81234567901237,150.6153839650349L129.03944444444446,150.6153839650349L129.2545061728395,150.6153839650349L129.4687654320988,150.6153839650349L129.68543209876543,150.6153839650349L129.90209876543213,150.6153839650349L130.117962962963,150.6153839650349L130.34907407407408,150.6153839650349L130.56253086419756,150.6153839650349L130.7848148148148,150.6153839650349L131.0022839506173,150.6153839650349L131.22697530864198,150.6153839650349L131.4564814814815,150.6153839650349L131.68919753086422,150.6153839650349L131.91308641975309,150.6153839650349L132.1401851851852,150.6153839650349L132.3953703703704,150.6153839650349L132.64413580246915,150.6153839650349L132.90092592592595,150.6153839650349L133.12641975308642,150.6153839650349L133.33907407407406,150.6153839650349L133.56296296296298,150.6153839650349L133.78444444444446,150.6153839650349L134.0011111111111,150.6153839650349L134.2266049382716,150.6153839650349L134.45290123456792,150.6153839650349L134.69685185185187,150.6153839650349L134.91351851851852,150.6153839650349L135.13901234567902,150.6153839650349L135.3612962962963,150.6153839650349L135.5771604938272,150.6153839650349L135.79302469135803,150.6153839650349L136.0096913580247,150.6153839650349L136.2263580246914,150.6153839650349L136.43820987654323,150.6153839650349L136.6596913580247,150.6153839650349L136.88197530864198,150.6153839650349L137.10586419753088,150.6153839650349L137.32574074074077,150.6153839650349L137.54641975308644,150.6153839650349L137.7670987654321,150.6153839650349L137.98216049382717,150.6153839650349L138.20043209876548,150.6153839650349L138.4154938271605,150.6153839650349L138.6305555555556,150.6153839650349L138.844012345679,150.6153839650349L139.0598765432099,150.6153839650349L139.27574074074076,150.6153839650349L139.50524691358027,150.6153839650349L139.72030864197532,150.6153839650349L139.9417901234568,150.6153839650349L140.15444444444447,150.6153839650349L140.37432098765433,150.6153839650349L140.5917901234568,150.6153839650349L140.8108641975309,150.6153839650349L141.02993827160495,150.6153839650349L141.25944444444445,150.6153839650349L141.4777160493827,150.6153839650349L141.6991975308642,150.6153839650349L141.9174691358025,150.6153839650349L142.31148148148148,150.6153839650349L142.67098765432098,150.6153839650349L142.89006172839507,150.6153839650349L143.10753086419754,150.6153839650349L143.33141975308644,150.6153839650349L143.55611111111114,150.6153839650349L143.7767901234568,150.6153839650349L144.00709876543212,150.6153839650349L144.22777777777782,150.6153839650349L144.45246913580246,150.6153839650349L144.67635802469135,150.6153839650349L144.89382716049383,150.6153839650349L145.1112962962963,150.6153839650349L145.32635802469136,150.6153839650349L145.54864197530867,150.6153839650349L145.76851851851853,150.6153839650349L145.99561728395062,150.6153839650349L146.21469135802468,150.6153839650349L146.432962962963,150.6153839650349L146.64722222222224,150.6153839650349L146.86067901234568,150.6153839650349L147.07814814814816,150.6153839650349L147.3124691358025,150.6153839650349L147.52672839506175,150.6153839650349L147.7441975308642,150.6153839650349L147.95925925925926,150.6153839650349L148.17432098765434,150.6153839650349L148.38697530864198,150.6153839650349L148.6204938271605,150.6153839650349L148.8483950617284,150.6153839650349L149.0706790123457,150.6153839650349L149.300987654321,150.6153839650349L149.52006172839506,150.6153839650349L149.74074074074076,150.6153839650349L149.95901234567904,150.6153839650349L150.17648148148152,150.6153839650349L150.39796296296296,150.6153839650349L150.62506172839505,150.6153839650349L150.84333333333333,150.6153839650349L151.06000000000003,150.6153839650349L151.2798765432099,150.6153839650349L151.5077777777778,150.6153839650349L151.72364197530865,150.6153839650349L151.94191358024693,150.6153839650349L152.16018518518518,150.6153839650349L152.37524691358024,150.6153839650349L152.5879012345679,150.6153839650349L152.80697530864197,150.6153839650349L153.02364197530866,150.6153839650349L153.24833333333333,150.6153839650349L153.47382716049384,150.6153839650349L153.6929012345679,150.6153839650349L153.9111728395062,150.6153839650349L154.12944444444446,150.6153839650349L154.34530864197532,150.6153839650349L154.5651851851852,150.6153839650349L154.77944444444444,150.6153839650349L154.99450617283952,150.6153839650349L155.21598765432103,150.6153839650349L155.4334567901235,150.6153839650349L155.65172839506175,150.6153839650349L155.87,150.6153839650349L156.0954938271605,150.6153839650349L156.3137654320988,150.6153839650349L156.53123456790124,150.6153839650349L156.76796296296297,150.6153839650349L156.98543209876544,150.6153839650349L157.1980864197531,150.6153839650349L157.41314814814817,150.6153839650349L157.62901234567903,150.6153839650349L157.8448765432099,150.6153839650349L158.05913580246914,150.6153839650349L158.27740740740742,150.6153839650349L158.5029012345679,150.6153839650349L158.725987654321,150.6153839650349L158.9482716049383,150.6153839650349L159.16734567901236,150.6153839650349L159.3856172839506,150.6153839650349L159.6014814814815,150.6153839650349L159.81574074074072,150.6153839650349L160.04444444444445,150.6153839650349L160.26191358024695,150.6153839650349L160.4825925925926,162.93846157305123L160.69364197530865,162.93846157305123L160.91030864197532,162.93846157305123L161.1237654320988,162.93846157305123L161.34925925925924,162.93846157305123L161.56753086419755,162.93846157305123L161.7898148148148,162.93846157305123L162.00888888888892,162.93846157305123L162.2263580246914,162.93846157305123L162.44543209876545,162.93846157305123L162.6645061728395,162.93846157305123L162.8908024691358,162.93846157305123L163.1074691358025,162.93846157305123L163.32574074074074,162.93846157305123L163.54,162.93846157305123L163.7582716049383,162.93846157305123L163.97253086419752,162.93846157305123L164.18438271604938,162.93846157305123L164.39864197530866,162.93846157305123L164.61290123456791,162.93846157305123L164.8263580246914,162.93846157305123L165.04061728395064,162.93846157305123L165.2548765432099,162.93846157305123L165.46913580246917,162.93846157305123L165.6866049382716,162.93846157305123L165.89845679012348,162.93846157305123L166.11351851851853,162.93846157305123L166.32858024691362,162.93846157305123L166.55246913580248,162.93846157305123L166.76753086419754,162.93846157305123L166.9817901234568,162.93846157305123L167.19604938271604,162.93846157305123L167.41271604938274,162.93846157305123L167.63018518518518,162.93846157305123L167.84444444444443,162.93846157305123L168.06030864197533,162.93846157305123L168.27376543209877,162.93846157305123L168.48802469135802,162.93846157305123L168.7038888888889,162.93846157305123L168.92777777777778,162.93846157305123L169.14604938271606,162.93846157305123L169.36913580246915,162.93846157305123L169.589012345679,162.93846157305123L169.8048765432099,162.93846157305123L170.01993827160493,162.93846157305123L170.2341975308642,162.93846157305123L170.45728395061732,162.93846157305123L170.67314814814816,162.93846157305123L170.88981481481483,162.93846157305123L171.1072839506173,162.93846157305123L171.32475308641978,162.93846157305123L171.55024691358025,162.93846157305123L171.77092592592592,162.93846157305123L171.9883950617284,162.93846157305123L172.2082716049383,162.93846157305123L172.42493827160496,162.93846157305123L172.64641975308643,162.93846157305123L172.86388888888888,162.93846157305123L173.0917901234568,162.93846157305123L173.31567901234567,162.93846157305123L173.53635802469137,162.93846157305123L173.75222222222223,162.93846157305123L173.96567901234567,162.93846157305123L174.18555555555557,162.93846157305123L174.40382716049385,162.93846157305123L174.62450617283952,162.93846157305123L174.84197530864202,162.93846157305123L175.06024691358027,162.93846157305123L175.28012345679014,162.93846157305123L175.50160493827164,162.93846157305123L175.7222839506173,162.93846157305123L175.93654320987656,162.93846157305123L176.15320987654323,162.93846157305123L176.3682716049383,162.93846157305123L176.6033950617284,162.93846157305123L176.82006172839507,162.93846157305123L177.03512345679016,162.93846157305123L177.2517901234568,162.93846157305123L177.4756790123457,162.93846157305123L177.6995679012346,162.93846157305123L177.92024691358026,162.93846157305123L178.13851851851854,162.93846157305123L178.3543827160494,162.93846157305123L178.56864197530868,162.93846157305123L178.79012345679013,162.93846157305123L179.0051851851852,162.93846157305123L179.22024691358027,162.93846157305123L179.43611111111113,162.93846157305123L179.65438271604938,162.93846157305123L179.87104938271605,162.93846157305123L180.08691358024691,162.93846157305123L180.30117283950617,162.93846157305123L180.51944444444447,162.93846157305123L180.7633950617284,162.93846157305123L180.98567901234568,162.93846157305123L181.19993827160496,162.93846157305123L181.41901234567902,162.93846157305123L181.63166666666666,162.93846157305123L181.84913580246914,162.93846157305123L182.0666049382716,162.93846157305123L182.28487654320986,162.93846157305123L182.50395061728398,162.93846157305123L182.7198148148148,162.93846157305123L182.93567901234567,162.93846157305123L183.15154320987656,162.93846157305123L183.37222222222226,162.93846157305123L183.59049382716051,162.93846157305123L183.811975308642,162.93846157305123L184.0326543209877,162.93846157305123L184.25413580246916,162.93846157305123L184.47240740740742,162.93846157305123L184.68586419753086,162.93846157305123L184.90172839506172,162.93846157305123L185.1151851851852,162.93846157305123L185.32703703703703,162.93846157305123L185.55012345679015,162.93846157305123L185.76598765432098,162.93846157305123L185.98185185185187,162.93846157305123L186.19771604938273,162.93846157305123L186.42641975308646,162.93846157305123L186.64469135802472,162.93846157305123L186.85895061728397,162.93846157305123L187.0708024691358,162.93846157305123L187.2882716049383,162.93846157305123L187.50574074074075,162.93846157305123L187.7216049382716,162.93846157305123L187.93746913580247,162.93846157305123L188.1541358024691,162.93846157305123L188.3908641975309,162.93846157305123L188.621975308642,162.93846157305123L188.87475308641976,162.93846157305123L189.22864197530865,162.93846157305123L189.4485185185185,162.93846157305123L189.6627777777778,162.93846157305123L189.88586419753085,162.93846157305123L190.10333333333335,162.93846157305123L190.32320987654322,162.93846157305123L190.5422839506173,162.93846157305123L190.75814814814817,162.93846157305123L190.97320987654325,162.93846157305123L191.1874691358025,162.93846157305123L191.40574074074075,162.93846157305123L191.62,162.93846157305123L191.83987654320987,162.93846157305123L192.05574074074076,162.93846157305123L192.2691975308642,162.93846157305123L192.48746913580246,162.93846157305123L192.70333333333335,162.93846157305123L192.92802469135802,162.93846157305123L193.14709876543208,162.93846157305123L193.36456790123458,162.93846157305123L193.59086419753086,162.93846157305123L193.80672839506175,162.93846157305123L194.020987654321,162.93846157305123L194.23685185185184,162.93846157305123L194.4511111111111,162.93846157305123L194.66456790123456,162.93846157305123L194.8788271604938,162.93846157305123L195.09469135802468,162.93846157305123L195.31456790123454,162.93846157305123L195.528024691358,162.93846157305123L195.74469135802468,162.93846157305123L195.95814814814815,162.93846157305123L196.18203703703702,162.93846157305123L196.3970987654321,162.93846157305123L196.61055555555555,162.93846157305123L196.8208024691358,162.93846157305123L197.03746913580247,162.93846157305123L197.25092592592594,162.93846157305123L197.48043209876542,162.93846157305123L197.70512345679015,162.93846157305123L197.9282098765432,162.93846157305123L198.14728395061726,162.93846157305123L198.36234567901235,162.93846157305123L198.58543209876547,162.93846157305123L198.80049382716052,162.93846157305123L199.01555555555552,162.93846157305123L199.2306172839506,162.93846157305123L199.4585185185185,162.93846157305123L199.6783950617284,162.93846157305123L199.89345679012348,162.93846157305123L200.10851851851854,162.93846157305123L200.32037037037037,162.93846157305123L200.53623456790126,162.93846157305123L200.75129629629632,162.93846157305123L200.97117283950618,162.93846157305123L201.18543209876546,162.93846157305123L201.40129629629632,162.93846157305123L201.61716049382716,162.93846157305123L201.8306172839506,162.93846157305123L202.04487654320988,162.93846157305123L202.25993827160494,162.93846157305123L202.475,162.93846157305123L202.68925925925927,162.93846157305123L202.90351851851852,162.93846157305123L203.11697530864197,162.93846157305123L203.33203703703703,162.93846157305123L203.55512345679014,162.93846157305123L203.77018518518517,162.93846157305123L203.98604938271603,162.93846157305123L204.2059259259259,162.93846157305123L204.42018518518518,162.93846157305123L204.63364197530862,162.93846157305123L204.86314814814816,162.93846157305123L205.08864197530863,162.93846157305123L205.3020987654321,162.93846157305123L205.51716049382716,162.93846157305123L205.74185185185186,162.93846157305123L205.95611111111108,162.93846157305123L206.171975308642,162.93846157305123L206.38543209876542,162.93846157305123L206.6037037037037,162.93846157305123L206.81956790123456,162.93846157305123L207.03623456790126,162.93846157305123L207.2504938271605,162.93846157305123L207.46635802469135,162.93846157305123L207.68141975308643,162.93846157305123L207.8988888888889,162.93846157305123L208.11314814814816,162.93846157305123L208.32901234567905,162.93846157305123L208.5432716049383,162.93846157305123L208.75833333333333,162.93846157305123L208.9766049382716,162.93846157305123L209.1916666666667,162.93846157305123L209.41635802469136,162.93846157305123L209.6314197530864,162.93846157305123L209.84728395061728,162.93846157305123L210.05913580246914,162.93846157305123L210.27179012345678,162.93846157305123L210.48524691358023,162.93846157305123L210.6995061728395,162.93846157305123L210.91537037037037,162.93846157305123L211.12722222222223,162.93846157305123L211.3438888888889,162.93846157305123L211.55734567901234,162.93846157305123L211.77320987654318,162.93846157305123L211.9914814814815,162.93846157305123L212.20975308641974,162.93846157305123L212.42722222222224,162.93846157305123L212.6454938271605,162.93846157305123L212.86055555555558,162.93846157305123L213.07962962962964,162.93846157305123L213.2962962962963,162.93846157305123L213.51456790123456,162.93846157305123L213.74006172839506,162.93846157305123L213.95592592592592,162.93846157305123L214.1717901234568,162.93846157305123L214.38765432098762,162.93846157305123L214.6067283950617,162.93846157305123L214.82018518518518,162.93846157305123L215.03444444444443,162.93846157305123L215.25993827160494,162.93846157305123L215.4741975308642,162.93846157305123L215.69487654320986,162.93846157305123L215.9107407407407,162.93846157305123L216.133024691358,162.93846157305123L216.35129629629625,162.93846157305123L216.56796296296295,162.93846157305123L216.79024691358026,162.93846157305123L217.01253086419752,162.93846157305123L217.2324074074074,162.93846157305123L217.44907407407408,162.93846157305123L217.67456790123458,162.93846157305123L217.90086419753084,162.93846157305123L218.12154320987653,162.93846157305123L218.3406172839506,162.93846157305123L218.5588888888889,162.93846157305123L218.7787654320988,162.93846157305123L218.99302469135804,162.93846157305123L219.20969135802468,162.93846157305123L219.4375925925926,162.93846157305123L219.65506172839508,162.93846157305123L219.86932098765433,162.93846157305123L220.08358024691356,162.93846157305123L220.30185185185186,162.93846157305123L220.52333333333334,162.93846157305123L220.73839506172837,162.93846157305123L220.96148148148148,162.93846157305123L221.17814814814815,162.93846157305123L221.3972222222222,162.93846157305123L221.61388888888885,162.93846157305123L221.849012345679,162.93846157305123L222.0745061728395,162.93846157305123L222.29277777777776,162.93846157305123L222.50944444444443,162.93846157305123L222.7301234567901,162.93846157305123L222.94919753086418,162.93846157305123L223.16506172839507,162.93846157305123L223.3889506172839,162.93846157305123L223.6056172839506,162.93846157305123L223.8327160493827,162.93846157305123L224.063024691358,162.93846157305123L224.29975308641977,162.93846157305123L224.51722222222222,162.93846157305123L224.73790123456791,162.93846157305123L224.95697530864197,162.93846157305123L225.17524691358022,162.93846157305123L225.39030864197528,162.93846157305123L225.60296296296298,162.93846157305123L225.82364197530865,162.93846157305123L226.04351851851854,164.1707692342282L226.26018518518518,164.1707692342282L226.47685185185185,164.1707692342282L226.6967283950617,164.1707692342282L226.91820987654322,164.1707692342282L227.15012345679014,164.1707692342282L227.3691975308642,164.1707692342282L227.60351851851854,164.1707692342282L227.8225925925926,164.1707692342282L228.04327160493827,164.1707692342282L228.26154320987655,164.1707692342282L228.4806172839506,164.1707692342282L228.70049382716047,164.1707692342282L228.93802469135804,164.1707692342282L229.1659259259259,164.1707692342282L229.389012345679,164.1707692342282L229.6096913580247,164.1707692342282L229.82876543209875,164.1707692342282L230.0478395061728,164.1707692342282L230.27012345679012,164.1707692342282L230.4916049382716,164.1707692342282L230.72030864197527,164.1707692342282L230.94179012345677,164.1707692342282L231.16086419753083,164.1707692342282L231.38154320987653,164.1707692342282L231.6022222222222,164.1707692342282L231.82129629629625,164.1707692342282L232.0829012345679,164.1707692342282L232.3172222222222,164.1707692342282L232.54432098765432,164.1707692342282L232.77382716049382,164.1707692342282L233.00574074074072,164.1707692342282L233.2296296296296,164.1707692342282L233.4519135802469,164.1707692342282L233.67018518518518,164.1707692342282L233.91172839506174,164.1707692342282L234.1308024691358,164.1707692342282L234.34666666666666,164.1707692342282L234.56092592592594,164.1707692342282L234.78962962962962,164.1707692342282L235.02395061728393,164.1707692342282L235.25506172839502,164.1707692342282L235.48055555555555,164.1707692342282L235.6964197530864,164.1707692342282L235.91067901234567,164.1707692342282L236.12493827160492,164.1707692342282L236.3432098765432,164.1707692342282L236.5662962962963,164.1707692342282L236.799012345679,164.1707692342282L237.05901234567904,164.1707692342282L237.33666666666664,164.1707692342282L237.55734567901234,164.1707692342282L237.78685185185188,164.1707692342282L238.01154320987652,164.1707692342282L238.23382716049383,164.1707692342282L238.45771604938273,164.1707692342282L238.68240740740737,164.1707692342282L238.90790123456787,164.1707692342282L239.1333950617284,164.1707692342282L239.35407407407408,164.1707692342282L239.57154320987652,164.1707692342282L239.7906172839506,164.1707692342282L240.0088888888889,164.1707692342282L240.2343827160494,164.1707692342282L240.44864197530865,164.1707692342282L240.6669135802469,164.1707692342282L240.8827777777778,164.1707692342282L241.10104938271604,164.1707692342282L241.3153086419753,164.1707692342282L241.531975308642,164.1707692342282L241.74864197530863,164.1707692342282L241.97012345679013,164.1707692342282L242.185987654321,164.1707692342282L242.40987654320986,164.1707692342282L242.63055555555556,164.1707692342282L242.8448148148148,164.1707692342282L243.06308641975306,164.1707692342282L243.27814814814812,164.1707692342282L243.50925925925927,164.1707692342282L243.7251234567901,164.1707692342282L243.94339506172838,164.1707692342282L244.15765432098766,164.1707692342282L244.3735185185185,164.1707692342282L244.58858024691355,164.1707692342282L244.80604938271608,164.1707692342282L245.02432098765433,164.1707692342282L245.2425925925926,164.1707692342282L245.45845679012345,164.1707692342282L245.6735185185185,164.1707692342282L245.899012345679,164.1707692342282L246.1220987654321,164.1707692342282L246.34919753086422,164.1707692342282L246.5746913580247,164.1707692342282L246.79055555555553,164.1707692342282L247.01845679012345,164.1707692342282L247.23993827160493,164.1707692342282L247.46302469135804,164.1707692342282L247.67808641975307,164.1707692342282L247.89555555555555,164.1707692342282L248.1122222222222,164.1707692342282L248.3361111111111,164.1707692342282" style="fill: none;" fill="none"></path></g></g></g></g></g></g><g transform="translate(70, 178)" clip-path="url(#clip_1)"><clipPath id="clip_1"><rect width="260" height="21"></rect></clipPath><g><g><line x1="0" y1="0" x2="0" y2="5" style="visibility: inherit;" fill="rgb(0, 0, 0)" stroke="rgb(204, 204, 204)" stroke-width="1px"></line><line x1="28.88888888888889" y1="0" x2="28.88888888888889" y2="5" style="visibility: inherit;" fill="rgb(0, 0, 0)" stroke="rgb(204, 204, 204)" stroke-width="1px"></line><line x1="57.77777777777778" y1="0" x2="57.77777777777778" y2="5" style="visibility: inherit;" fill="rgb(0, 0, 0)" stroke="rgb(204, 204, 204)" stroke-width="1px"></line><line x1="86.66666666666666" y1="0" x2="86.66666666666666" y2="5" style="visibility: inherit;" fill="rgb(0, 0, 0)" stroke="rgb(204, 204, 204)" stroke-width="1px"></line><line x1="115.55555555555556" y1="0" x2="115.55555555555556" y2="5" style="visibility: inherit;" fill="rgb(0, 0, 0)" stroke="rgb(204, 204, 204)" stroke-width="1px"></line><line x1="144.44444444444446" y1="0" x2="144.44444444444446" y2="5" style="visibility: inherit;" fill="rgb(0, 0, 0)" stroke="rgb(204, 204, 204)" stroke-width="1px"></line><line x1="173.33333333333334" y1="0" x2="173.33333333333334" y2="5" style="visibility: inherit;" fill="rgb(0, 0, 0)" stroke="rgb(204, 204, 204)" stroke-width="1px"></line><line x1="202.2222222222222" y1="0" x2="202.2222222222222" y2="5" style="visibility: inherit;" fill="rgb(0, 0, 0)" stroke="rgb(204, 204, 204)" stroke-width="1px"></line><line x1="231.11111111111111" y1="0" x2="231.11111111111111" y2="5" style="visibility: inherit;" fill="rgb(0, 0, 0)" stroke="rgb(204, 204, 204)" stroke-width="1px"></line><line x1="260" y1="0" x2="260" y2="5" style="visibility: inherit;" fill="rgb(0, 0, 0)" stroke="rgb(204, 204, 204)" stroke-width="1px"></line></g><g transform="translate(0, 8)"><text x="0" y="0" dx="0em" dy="0.95em" style="text-anchor: middle; visibility: hidden; font-family: &quot;Helvetica Neue&quot;, sans-serif; font-size: 12px; font-weight: 200;" fill="rgb(50, 49, 63)" stroke="none" stroke-width="1px">-0.01</text><text x="28.88888888888889" y="0" dx="0em" dy="0.95em" style="text-anchor: middle; visibility: inherit; font-family: &quot;Helvetica Neue&quot;, sans-serif; font-size: 12px; font-weight: 200;" fill="rgb(50, 49, 63)" stroke="none" stroke-width="1px">0</text><text x="57.77777777777778" y="0" dx="0em" dy="0.95em" style="text-anchor: middle; visibility: hidden; font-family: &quot;Helvetica Neue&quot;, sans-serif; font-size: 12px; font-weight: 200;" fill="rgb(50, 49, 63)" stroke="none" stroke-width="1px">0.01</text><text x="86.66666666666666" y="0" dx="0em" dy="0.95em" style="text-anchor: middle; visibility: inherit; font-family: &quot;Helvetica Neue&quot;, sans-serif; font-size: 12px; font-weight: 200;" fill="rgb(50, 49, 63)" stroke="none" stroke-width="1px">0.02</text><text x="115.55555555555556" y="0" dx="0em" dy="0.95em" style="text-anchor: middle; visibility: hidden; font-family: &quot;Helvetica Neue&quot;, sans-serif; font-size: 12px; font-weight: 200;" fill="rgb(50, 49, 63)" stroke="none" stroke-width="1px">0.03</text><text x="144.44444444444446" y="0" dx="0em" dy="0.95em" style="text-anchor: middle; visibility: inherit; font-family: &quot;Helvetica Neue&quot;, sans-serif; font-size: 12px; font-weight: 200;" fill="rgb(50, 49, 63)" stroke="none" stroke-width="1px">0.04</text><text x="173.33333333333334" y="0" dx="0em" dy="0.95em" style="text-anchor: middle; visibility: hidden; font-family: &quot;Helvetica Neue&quot;, sans-serif; font-size: 12px; font-weight: 200;" fill="rgb(50, 49, 63)" stroke="none" stroke-width="1px">0.05</text><text x="202.2222222222222" y="0" dx="0em" dy="0.95em" style="text-anchor: middle; visibility: inherit; font-family: &quot;Helvetica Neue&quot;, sans-serif; font-size: 12px; font-weight: 200;" fill="rgb(50, 49, 63)" stroke="none" stroke-width="1px">0.06</text><text x="231.11111111111111" y="0" dx="0em" dy="0.95em" style="text-anchor: middle; visibility: hidden; font-family: &quot;Helvetica Neue&quot;, sans-serif; font-size: 12px; font-weight: 200;" fill="rgb(50, 49, 63)" stroke="none" stroke-width="1px">0.07</text><text x="260" y="0" dx="0em" dy="0.95em" style="text-anchor: middle; visibility: hidden; font-family: &quot;Helvetica Neue&quot;, sans-serif; font-size: 12px; font-weight: 200;" fill="rgb(50, 49, 63)" stroke="none" stroke-width="1px">0.08</text></g><line x1="0" y1="0" x2="260" y2="0" fill="rgb(0, 0, 0)" stroke="rgb(204, 204, 204)" stroke-width="1px"></line></g></g></g></g></svg>